<svg xmlns="http://www.w3.org/2000/svg" width="559" height="430" viewBox="0 0 559 430"><defs><clipPath id="ayn5a"><path d="M88.154 288.761c-1.306 5.447-6.778 8.802-12.222 7.496-5.444-1.305-8.801-6.778-7.496-12.221 1.306-5.444 6.778-8.799 12.222-7.494 5.444 1.303 8.801 6.776 7.496 12.22z"/></clipPath></defs><g><g><path fill="#d7e8f7" d="M44.847 383.865V110.18h431.4v273.685z"/></g><g><path fill="#fff" d="M176.53 234.62a3.186 3.186 0 0 1-3.186-3.186v-87.727a3.186 3.186 0 0 1 3.187-3.186h170.666a3.186 3.186 0 0 1 3.187 3.186v87.727a3.186 3.186 0 0 1-3.187 3.186z"/></g><g><path fill="#fff" d="M374.054 226.624a2.3 2.3 0 0 1-2.3-2.3v-81.503a2.3 2.3 0 0 1 2.3-2.3h75.922a2.3 2.3 0 0 1 2.3 2.3v81.504a2.3 2.3 0 0 1-2.3 2.3z"/></g><g><path fill="#fff" d="M282.422 357.047a2.264 2.264 0 0 1-2.263-2.264v-102.07a2.264 2.264 0 0 1 2.263-2.264h167.59a2.264 2.264 0 0 1 2.264 2.263v102.071a2.264 2.264 0 0 1-2.264 2.264z"/></g><g><g><path fill="#fff" d="M173.401 266.585a1.054 1.054 0 0 1-1.054-1.054v-3.232c0-.583.472-1.055 1.054-1.055H248.1c.583 0 1.055.472 1.055 1.055v3.232c0 .582-.472 1.054-1.055 1.054z"/></g><g><path fill="#fff" d="M173.401 283.327a1.054 1.054 0 0 1-1.054-1.055v-3.232c0-.582.472-1.054 1.054-1.054H248.1c.583 0 1.055.472 1.055 1.054v3.232c0 .583-.472 1.055-1.055 1.055z"/></g><g><path fill="#fff" d="M173.401 300.069a1.054 1.054 0 0 1-1.054-1.055v-3.232c0-.582.472-1.054 1.054-1.054h52.308c.582 0 1.054.472 1.054 1.054v3.232c0 .583-.472 1.055-1.054 1.055z"/></g><g><path fill="#fff" d="M173.401 316.81a1.054 1.054 0 0 1-1.054-1.054v-3.232c0-.582.472-1.054 1.054-1.054h52.308c.582 0 1.054.472 1.054 1.054v3.232c0 .583-.472 1.055-1.054 1.055z"/></g><g><path fill="#fff" d="M173.401 350.436a1.054 1.054 0 0 1-1.054-1.054v-3.232c0-.582.472-1.054 1.054-1.054h52.308c.582 0 1.054.472 1.054 1.054v3.232c0 .582-.472 1.054-1.054 1.054z"/></g><g><path fill="#fff" d="M173.401 333.552a1.054 1.054 0 0 1-1.054-1.054v-3.232c0-.582.472-1.054 1.054-1.054H248.1c.583 0 1.055.472 1.055 1.054v3.232c0 .582-.472 1.054-1.055 1.054z"/></g></g><g><g><path fill="#d7e8f7" d="M193.115 207.88a1.054 1.054 0 0 1-1.055-1.055v-3.232c0-.582.472-1.054 1.055-1.054h101.453c.582 0 1.054.472 1.054 1.054v3.232c0 .582-.472 1.054-1.054 1.054z"/></g><g><path fill="#d7e8f7" d="M193.115 220.42a1.054 1.054 0 0 1-1.055-1.055v-3.232c0-.582.472-1.054 1.055-1.054h54.322c.582 0 1.054.472 1.054 1.054v3.232c0 .582-.472 1.054-1.054 1.054z"/></g></g><g><g><path fill="#d7e8f7" d="M384.388 220.42a1.054 1.054 0 0 1-1.054-1.055v-3.232c0-.582.472-1.054 1.054-1.054h7.19c.583 0 1.055.472 1.055 1.054v3.232c0 .582-.472 1.054-1.054 1.054z"/></g></g><g><g><path fill="#d7e8f7" d="M384.388 208.912a1.054 1.054 0 0 1-1.054-1.054v-3.233c0-.582.472-1.054 1.054-1.054h55.56c.583 0 1.055.472 1.055 1.054v3.233c0 .582-.472 1.054-1.054 1.054z"/></g></g><g><path fill="#cadfef" d="M514.622 386.675H15.479a1.401 1.401 0 0 1 0-2.802h499.143a1.4 1.4 0 1 1 0 2.802z"/></g><g><path fill="#84b4fe" d="M36.82 383.865V110.18H148.61v273.685z"/></g><g><path fill="#214a81" d="M36.82 110.18V87.819a4.062 4.062 0 0 1 4.062-4.062h431.303a4.062 4.062 0 0 1 4.062 4.062v22.36z"/></g><g><g><path fill="#daeaff" d="M71.692 96.967a5.334 5.334 0 1 1-10.669.001 5.334 5.334 0 0 1 10.67 0z"/></g><g><path fill="#ffd474" d="M87.499 96.967a5.334 5.334 0 1 1-10.67.001 5.334 5.334 0 0 1 10.67 0z"/></g><g><path fill="#daeaff" d="M103.305 96.967a5.334 5.334 0 1 1-10.669.001 5.334 5.334 0 0 1 10.67 0z"/></g></g><g><g><path fill="#fff" d="M57.876 175.36c0-19.241 15.598-34.839 34.839-34.839 19.24 0 34.838 15.598 34.838 34.838 0 19.241-15.598 34.839-34.838 34.839-19.24 0-34.839-15.598-34.839-34.839z"/></g><g><g><path fill="#84b4fe" d="M102.145 166.381c0 5.137-4.165 9.3-9.302 9.3a9.298 9.298 0 0 1-9.299-9.3c0-5.137 4.162-9.302 9.3-9.302a9.302 9.302 0 0 1 9.3 9.302z"/></g><g><path fill="#84b4fe" d="M72.444 190.984l3.338-6.21a10.992 10.992 0 0 1 9.684-5.79h13.536c3.653 0 7.066 1.816 9.111 4.842l4.832 7.158z"/></g></g></g><g><g><path fill="#fff" d="M510.786 262.37l-.044.002c5.224-5.458 2.768-11.486 1.823-13.321l-.008-.01c-.18-.353-.314-.565-.314-.565l.049.01a21.853 21.853 0 0 1-2.386-9.928 21.937 21.937 0 0 1 6.444-15.56c3.66-4.844.892-11.281.892-11.281h.007c-.57-1.622-.899-3.356-.899-5.173 0-8.594 6.967-15.56 15.56-15.56 8.596 0 15.562 6.966 15.562 15.56 0 1.817-.328 3.55-.899 5.173h.007s-2.768 6.437.892 11.28a21.937 21.937 0 0 1 6.445 15.56c0 3.576-.87 6.938-2.384 9.921l.017-.002-.068.11c-.125.245-.249.487-.381.726-.98 2.02-2.863 7.411 1.443 12.463.133.158.268.31.398.47.04.04.068.084.11.127h-.015c3.722 4.64 5.963 10.52 5.963 16.93 0 14.961-12.13 27.089-27.09 27.089-14.958 0-27.088-12.128-27.088-27.088 0-6.41 2.241-12.294 5.964-16.933z"/></g><g><path fill="#009db0" d="M523.947 276.985l6.636 6.565v-23.065l-8.149-8.062a1.076 1.076 0 1 1 1.513-1.53l6.636 6.565V225.64a1.075 1.075 0 1 1 2.151 0v19.176l6.454-6.418a1.077 1.077 0 0 1 1.516 1.528l-7.97 7.924v23.164l7.131-7.203a1.077 1.077 0 0 1 1.53 1.513l-8.66 8.75v61.454a1.075 1.075 0 1 1-2.152 0v-48.95l-8.149-8.063a1.076 1.076 0 1 1 1.513-1.53z"/></g></g><g><path fill="#cadfef" d="M554.64 337.79h-43.625a1.469 1.469 0 1 1 0-2.934h43.624a1.468 1.468 0 0 1 0 2.935z"/></g><g><g><path fill="#fff" d="M331.9 18.09h-60.606s4.44-18.202 20.117-18.202c11.612 0 17.64 7.344 19.985 11.15 4.581-1.79 14.444-3.966 20.504 7.052"/></g><g><g><g><path fill="#fff" d="M405.756 35.494c2.98 0 5.775.81 8.197 2.21 4.632-8.076 13.177-13.515 22.978-13.515 9.157 0 17.228 4.733 22.029 11.936 2.533-8.678 10.377-15.006 19.669-15.006 10.549 0 19.227 8.148 20.394 18.637a16.432 16.432 0 0 1 2.599-.227c6.432 0 12.009 3.725 14.808 9.18H389.483c1.736-7.57 8.354-13.215 16.273-13.215z"/></g></g></g></g><g><g><g><path fill="#a7c8f9" d="M449.334 429.557a1.608 1.608 0 0 1-1.433-.87l-84.604-163.569a1.61 1.61 0 1 1 2.862-1.479l84.604 163.566a1.61 1.61 0 0 1-1.429 2.352z"/></g><g><path fill="#a7c8f9" d="M480.758 429.557a1.609 1.609 0 0 1-1.433-.87l-84.604-163.569a1.61 1.61 0 1 1 2.862-1.479l84.604 163.566a1.609 1.609 0 0 1-1.429 2.352z"/></g><g><path fill="#a7c8f9" d="M470.802 410.31h-31.424a1.611 1.611 0 1 1 0-3.222h31.424a1.612 1.612 0 1 1 0 3.222z"/></g><g><path fill="#a7c8f9" d="M451.75 374.767h-30.62a1.611 1.611 0 0 1 0-3.224h30.62a1.613 1.613 0 0 1 0 3.224z"/></g><g><path fill="#a7c8f9" d="M433.504 339.222h-30.62a1.611 1.611 0 0 1 0-3.225h30.62a1.613 1.613 0 0 1 0 3.225z"/></g><g><path fill="#a7c8f9" d="M415.258 303.676H384.64a1.611 1.611 0 1 1 0-3.222h30.62a1.611 1.611 0 0 1 0 3.222z"/></g></g><g><g><path fill="#68a0f2" d="M308.324 429.557a1.613 1.613 0 0 1-1.431-2.352l84.606-163.566a1.61 1.61 0 1 1 2.862 1.48l-84.604 163.568c-.287.553-.85.87-1.433.87z"/></g><g><path fill="#68a0f2" d="M276.9 429.557a1.613 1.613 0 0 1-1.431-2.352l84.606-163.566a1.61 1.61 0 1 1 2.862 1.48l-84.604 163.568c-.287.553-.85.87-1.433.87z"/></g><g><path fill="#68a0f2" d="M318.28 410.31h-31.424a1.611 1.611 0 1 1 0-3.222h31.425a1.612 1.612 0 1 1 0 3.222z"/></g><g><path fill="#68a0f2" d="M336.526 374.767H305.91a1.612 1.612 0 1 1 0-3.224h30.617a1.613 1.613 0 0 1 0 3.224z"/></g><g><path fill="#68a0f2" d="M354.774 339.222h-30.62a1.613 1.613 0 0 1 0-3.225h30.62a1.611 1.611 0 1 1 0 3.225z"/></g><g><path fill="#68a0f2" d="M373.02 303.676H342.4a1.611 1.611 0 0 1 0-3.222h30.62a1.611 1.611 0 0 1 0 3.222z"/></g><g><path fill="#214a81" d="M356.815 264.378a.95.95 0 0 1-.95-.95v-6.157a.95.95 0 0 1 .95-.95h44.028a.95.95 0 0 1 .95.95v6.157a.95.95 0 0 1-.95.95z"/></g></g></g><g><path fill="#d7e8f7" d="M188.906 171.983c0-9.362 7.59-16.952 16.952-16.952 9.362 0 16.952 7.59 16.952 16.952 0 9.363-7.59 16.952-16.952 16.952-9.363 0-16.952-7.59-16.952-16.952z"/></g><g><path fill="#d7e8f7" d="M407.446 192.567c-10.595-2.11-17.472-12.41-15.362-23.004 2.11-10.594 12.409-17.472 23.003-15.362 10.595 2.11 17.472 12.41 15.362 23.003-2.11 10.595-12.409 17.473-23.003 15.363z"/></g><g><path fill="#84b4fe" d="M407.26 185.533c-10.478-2.626-16.844-13.25-14.218-23.728 2.626-10.478 13.25-16.844 23.728-14.218 10.478 2.626 16.844 13.25 14.218 23.728-2.626 10.478-13.25 16.844-23.728 14.218z"/></g><g><g><path fill="#fff" d="M24.482 324.347a1.439 1.439 0 0 1-1.901-.723L.383 274.18a1.439 1.439 0 0 1 .724-1.902l112.864-50.67a1.439 1.439 0 0 1 1.902.724l22.197 49.444a1.439 1.439 0 0 1-.723 1.901z"/></g><g><path fill="#ebf5ff" d="M78.707 286.654a.648.648 0 0 1-.857-.326l-12.402-27.625a.648.648 0 0 1 .326-.857l34.15-15.332a.648.648 0 0 1 .856.326l12.403 27.626c.146.327 0 .71-.326.857z"/></g><g><g><path fill="#ebf5ff" d="M56.676 278.611c3.534 7.973-.065 17.3-8.04 20.835-7.972 3.534-17.3-.065-20.834-8.04-3.534-7.972.066-17.3 8.04-20.834 7.972-3.534 17.3.065 20.834 8.04z"/></g></g><g><path fill="#ffbda1" d="M112.039 287.91a4.716 4.716 0 1 1-9.428 0 4.716 4.716 0 0 1 9.428 0z"/></g><g><path fill="#ffbda1" d="M42.804 355.074a4.715 4.715 0 1 1-9.428.001 4.715 4.715 0 0 1 9.428-.001z"/></g><g><g><path fill="#ffbda1" d="M102.488 425.88c.094-.578.094-16.99.094-16.99h7.622v16.997z"/></g><g><path fill="#1e1a1e" d="M123.76 429.083l-21.272.094v-6.529l14.687-.065a6.545 6.545 0 0 1 6.585 6.5z"/></g></g><g><g><path fill="#ffbda1" d="M26.451 407.852c.53-.246 14.129-9.437 14.129-9.437l4.266 6.314-14.083 9.52z"/></g><g><path fill="#1e1a1e" d="M35.71 427.268l-11.99-17.571 5.407-3.655 8.28 12.132a6.543 6.543 0 0 1-1.698 9.094z"/></g></g><g><g><path fill="#ffbda1" d="M89.532 283.89l-2.338-1.002-1.33 3.08 2.266.543 1.525-.935a.95.95 0 0 0-.123-1.685z"/></g><g><g><path fill="#ffbda1" d="M88.154 288.761c-1.306 5.447-6.778 8.802-12.222 7.496-5.444-1.305-8.801-6.778-7.496-12.221 1.306-5.444 6.778-8.799 12.222-7.494 5.444 1.303 8.801 6.776 7.496 12.22z"/></g><g><g><path fill="#ffbda1" d="M88.154 288.761c-1.306 5.447-6.778 8.802-12.222 7.496-5.444-1.305-8.801-6.778-7.496-12.221 1.306-5.444 6.778-8.799 12.222-7.494 5.444 1.303 8.801 6.776 7.496 12.22z"/></g><g clip-path="url(#ayn5a)"><path fill="#072042" d="M81.717 273.578l-11.892 24.108-4.6-17.148z"/></g></g></g><g><path fill="#ffbda1" d="M76.607 286.903a2.84 2.84 0 1 1-5.522-1.326 2.84 2.84 0 0 1 5.522 1.326z"/></g><g><path fill="#072042" d="M69.212 293.166a8.873 8.873 0 0 1-11.96 3.788c-4.349-2.256-6.044-7.61-3.788-11.959 2.257-4.348 7.612-6.045 11.96-3.787 4.347 2.255 6.043 7.61 3.788 11.958z"/></g></g><g><path fill="#ffbda1" d="M82.065 295.165v14.068l-8.792-5.862.95-8.528z"/></g><g><path fill="#0e2c58" d="M90.273 337.958v9.24a6.002 6.002 0 0 1-6.002 6.001H66.964a6.002 6.002 0 0 1-6.002-6.002v-9.24z"/></g><g><path fill="#0e2c58" d="M74.08 347.64l10.859 16.431 5.431 8.216 1.335 2.023a10.995 10.995 0 0 1 .699 1.211 12.295 12.295 0 0 1 1.145 3.484l.031.181.04.28.084.612.333 2.444.67 4.89 1.337 9.778 2.675 19.553 14.76-1.64-1.68-19.666-.841-9.83-.42-4.917-.21-2.459-.054-.614-.075-.761a29.41 29.41 0 0 0-2.925-9.918c-.256-.515-.53-1.02-.85-1.583l-1.277-2.161-5.033-8.512-10.063-17.03z"/></g><g><path fill="#0e2c58" d="M60.948 338.467l-.796 19.965-.37 9.985-.186 4.994-.091 2.495-.022.556a1.54 1.54 0 0 0 0 .21c-.02.174-.027.355-.056.532a6.075 6.075 0 0 1-.68 2.069c-.173.326-.376.64-.613.933-.244.3-.471.549-.803.846l-7.725 6.372a2163.094 2163.094 0 0 0-15.388 12.823l7.766 10.247c5.519-3.759 11.018-7.54 16.5-11.346l8.219-5.715c4.143-2.949 7.322-7.508 8.579-12.589.167-.633.29-1.276.406-1.926l.14-1.03.075-.691.259-2.495.517-4.984 1.037-9.974 2.02-19.952z"/></g><g><path fill="#ffd673" d="M122.046 307.063l-8.207-18.173-9.615 4.343 4.774 10.574-17.574-.32v-.116H72.96c-3.413 0-6.476 1.441-8.661 3.73-.616.464-1.201.989-1.721 1.603l-16.904 15.238c-.363.43-.655.914-.863 1.436l-9.969 24.755 9.79 3.94 9.65-23.967 6.681-6.531v14.97H87.93a3.497 3.497 0 0 0 3.495-3.495V314.04l25.717.467.097.002a5.275 5.275 0 0 0 4.808-7.447z"/></g></g><g><g><g><g><g><g><path fill="#ffbda1" d="M406.182 183.145a4.56 4.56 0 0 1-4.388 4.723 4.561 4.561 0 0 1-4.723-4.387 4.561 4.561 0 0 1 4.387-4.724 4.56 4.56 0 0 1 4.724 4.388z"/></g><g><g><path fill="#ffbda1" d="M279.224 278.702a4.557 4.557 0 1 1 9.114 0 4.557 4.557 0 0 1-9.114 0z"/></g><g><path fill="#ffbda1" d="M282.992 275.6l6.31-8.768 4.383 3.155-6.31 8.768z"/></g></g><g><path fill="#ffbda1" d="M335.357 203.41l1.098 16.627 8.53-2.025-1.097-15.276z"/></g><g><path fill="#ffd474" d="M357.882 246.078v-30.344c0-3.227-3.07-5.57-6.18-4.72l-8.449 2.303a43.231 43.231 0 0 0-7.61 2.867l-8.771 4.283a3.695 3.695 0 0 0-2.074 3.319v27.972z"/></g><g><path fill="#ffd474" d="M352.301 220.658l-2.342-9.157 27.573-7.056 17.931-21.131 7.209 6.116-18.906 22.28a4.72 4.72 0 0 1-2.431 1.52z"/></g><g><path fill="#ffd474" d="M290.758 276.994l-7.54-5.7 20.931-27.682a4.36 4.36 0 0 1 .378-.44l21.566-22.195 6.824 6.495-21.405 22.072z"/></g><g><g><path fill="#ffbda1" d="M333.091 329.082l5.886-11.727h6.926l-6.077 12.154z"/></g><g><path fill="#1e1a1e" d="M355.318 335.954l-22.59.099v-6.933l15.6-.068a6.946 6.946 0 0 1 6.99 6.902z"/></g></g><g><g><path fill="#ffbda1" d="M299.962 332.73l5.173-10.985 6.143 2.12-6.397 13.485z"/></g></g><g><g><path fill="#03345f" d="M324.798 250.936v1.538c0 9.077 9.366 9.959 19.53 8.32 7.852-1.267 13.555-5.083 13.555-12.096v-2.62z"/></g><g><path fill="#03345f" d="M343.887 249.677l-11.168 41.267-.191.711c-.111.409-.28.815-.474 1.168l-19.92 34.617-11.772-2.589 19.882-38.328-.668 1.878 5.222-37.465z"/></g><g><path fill="#03345f" d="M357.883 246.078l6.258 36.96.101.686a6.632 6.632 0 0 1-.471 3.57l-16.355 34.451-12.918-.633 16.82-39.186-.37 4.254-11.635-34.975z"/></g></g></g><g><path fill="#ffd474" d="M331.991 217.968s2.821-9.333 15.11-5.954"/></g></g></g><g><g><path fill="#ffbda1" d="M330.78 199.468a2.695 2.695 0 0 1-5.368.45 2.693 2.693 0 1 1 5.369-.45z"/></g><g><path fill="#ffbda1" d="M352.357 197.663a2.693 2.693 0 1 1-5.368.453 2.693 2.693 0 0 1 5.368-.453z"/></g><g><path fill="#072042" d="M349.717 195.552c.51 6.097-4.017 11.45-10.114 11.961-6.094.508-11.448-4.017-11.958-10.114-.51-6.094 4.018-11.448 10.114-11.958 6.094-.51 11.448 4.018 11.958 10.111z"/></g></g></g><g><path fill="#1e1a1e" d="M302.65 351.613a4.54 4.54 0 0 1-4.539-4.54v-13.116a4.541 4.541 0 0 1 9.082 0v13.116a4.54 4.54 0 0 1-4.542 4.54z"/></g></g></g></svg>