<svg xmlns="http://www.w3.org/2000/svg" xmlns:xlink="http://www.w3.org/1999/xlink" viewBox="0 0 428.03 425.2"><defs><clipPath id="clip-path"><rect x="-1802.72" y="-1567.42" width="1878.86" height="1145.94" fill="none"/></clipPath></defs><g id="ICONS"><g clip-path="url(#clip-path)"><image width="2880" height="10002" transform="translate(-1834.39 -5311.2) scale(0.67)" xlink:href="../TEMPLATES/screencapture-localhost-3000-2021-04-28-15_57_21.png"/></g><path d="M322.45,268.08c.76-.11,1.51-.19,2.27-.24l16.87-1A4.91,4.91,0,0,0,345.1,265a4.86,4.86,0,0,0,1-3.84l-2.9-16.65a28.2,28.2,0,0,1,14.83-30l15-7.78a4.86,4.86,0,0,0,1.8-7l-9.29-13.84a28.48,28.48,0,0,1,1.38-33.75l10.38-13A4.87,4.87,0,0,0,376,132l-14.12-8.86a28.47,28.47,0,0,1-12.46-31.39l4.18-16.14a4.83,4.83,0,0,0-.66-3.91,4.89,4.89,0,0,0-3.36-2.12l-16.49-2.35A28.52,28.52,0,0,1,309,43.57l-2.74-16.44a4.87,4.87,0,0,0-6.12-3.87l-16.35,4.65a28.2,28.2,0,0,1-31.23-11.64L243.19,2.18A4.83,4.83,0,0,0,239.84.05,4.89,4.89,0,0,0,236,1.13L223.06,12a28.19,28.19,0,0,1-10.66,5.57,29.73,29.73,0,0,1-23.7-4.08L175.47,5a4.86,4.86,0,0,0-7,2l-7,14.35a29.37,29.37,0,0,1-13.71,14,28.48,28.48,0,0,1-16.29,2.37l-16.67-2.5a4.81,4.81,0,0,0-3.84,1.05,4.89,4.89,0,0,0-1.77,3.57l-.62,16.88A28.27,28.27,0,0,1,87.82,82.86l-16.3,4.51a4.87,4.87,0,0,0-3.2,6.49l6.21,15.46a28.47,28.47,0,0,1-8.36,32.73L53.31,152.64a4.87,4.87,0,0,0-.3,7.25l12,11.6a28.49,28.49,0,0,1,5.68,33.3L63.2,219.7a4.86,4.86,0,0,0,2.67,6.74l15.65,5.73a28.5,28.5,0,0,1,18.73,28.12l-.4,8.89-52.18,115,69.68-36.11,18.41,77.12L190.1,305.85l0,0a28.29,28.29,0,0,1,20.7,8.09l12.05,11.85a4.84,4.84,0,0,0,3.4,1.39h.32A4.85,4.85,0,0,0,230,325.3l9.34-11.9,53.8,109.47,16.12-77.63,71.07,34.21Zm-200.51,70L62,369.14l39.86-87.85a4.88,4.88,0,0,0,2.88.71l16.63-1.12a28.5,28.5,0,0,1,28.53,18.06l6.1,15.51a4.87,4.87,0,0,0,6.8,2.52l14.93-7.89a28.21,28.21,0,0,1,4.31-1.84l-44.23,97.14Zm110.81-31-6.95,8.86-8.65-8.51A37.4,37.4,0,0,0,173.43,301L162.7,306.7l-4.36-11.09a37.56,37.56,0,0,0-37.63-23.82l-11.89.8.53-11.9a37.57,37.57,0,0,0-24.69-37.07l-11.19-4.1,5.33-10.66A37.56,37.56,0,0,0,71.31,165l-8.54-8.29L72,149.09a37.57,37.57,0,0,0,11-43.16L78.55,94.88l11.71-3.24A37.37,37.37,0,0,0,117.65,57l.45-12.13,12,1.8a37.35,37.35,0,0,0,21.44-3.1,38.43,38.43,0,0,0,18.09-18.23l5-10.08,9.22,5.88c9.53,6.09,20.83,8,31,5.19A37.13,37.13,0,0,0,228.9,19l9.31-7.78,6.69,10.12a37.3,37.3,0,0,0,41.32,15.39L298,33.33,300,45.07a37.6,37.6,0,0,0,31.87,31.14l11.79,1.68-3,11.53a37.55,37.55,0,0,0,16.44,41.39l10.09,6.34-7.42,9.32a37.55,37.55,0,0,0-1.81,44.5l6.64,9.89-10.78,5.6a37.27,37.27,0,0,0-19.59,39.59l2.08,12-12.11.74a37.37,37.37,0,0,0-34,28.2l-3,11.77-11.36-4.26a37.51,37.51,0,0,0-28.79,1A38.46,38.46,0,0,0,232.75,307.08Zm71.65,28.28-13.86,66.76-46.23-94.07a26.33,26.33,0,0,1,6.49-4.24,28.38,28.38,0,0,1,21.83-.82l15.83,5.93a4.85,4.85,0,0,0,6.41-3.37L299,289.17A28.36,28.36,0,0,1,318.38,269l-2.45,1.28,49,94.23Z" fill="#41a4f7"/><path d="M328.87,158.13a2.19,2.19,0,0,0-2.2-2.14,2.16,2.16,0,0,0-2.14,2.2,109.32,109.32,0,1,1-74.19-102,2.17,2.17,0,1,0,1.4-4.11,113.78,113.78,0,1,0-36.66,221.5h1.72A113.89,113.89,0,0,0,328.87,158.13Z" fill="#41a4f7"/><path d="M279.79,71.54a109.37,109.37,0,0,1,28.34,30.6A108.23,108.23,0,0,1,322.36,138a2.18,2.18,0,0,0,2.13,1.74,2.09,2.09,0,0,0,.43,0,2.17,2.17,0,0,0,1.7-2.56A113.72,113.72,0,0,0,282.36,68a2.17,2.17,0,0,0-2.57,3.5Z" fill="#41a4f7"/><path d="M217.37,93.72l-18.71,37.92-41.85,6.08,30.28,29.52-7.15,41.68,37.43-19.68,37.43,19.68-7.15-41.68,30.28-29.52-41.84-6.08Zm22.5,71,5.32,31-27.82-14.62-27.81,14.62,5.31-31-22.5-21.93,31.1-4.52,13.9-28.18,13.91,28.18,31.1,4.52Z" fill="#41a4f7"/></g></svg>