<svg xmlns="http://www.w3.org/2000/svg" xmlns:xlink="http://www.w3.org/1999/xlink" viewBox="0 0 428.03 425.2"><defs><clipPath id="clip-path"><rect x="-1208.93" y="-1567.42" width="1878.86" height="1145.94" fill="none"/></clipPath></defs><g id="ICONS"><g clip-path="url(#clip-path)"><image width="2880" height="10002" transform="translate(-1240.59 -5311.2) scale(0.67)" xlink:href="../TEMPLATES/screencapture-localhost-3000-2021-04-28-15_57_21.png"/></g><path d="M419.32,44a29.75,29.75,0,0,0-21-8.62L220,35.27h0a29.62,29.62,0,0,0-29.74,29.42l-.1,140.53,5.41,1.9c-1,.07-1.87.13-2.8.21-4.19.31-8.52.64-16.31.86-10.64-6.84-19-12.21-29.71-18.75l2.17-2.64-25.6-15.87a32.66,32.66,0,0,0,3.59-4.39A33.45,33.45,0,0,0,130,140.82c-3.08-11.48-11.4-21.8-22.84-28.33C86,100.4,60.31,104.91,50,122.56c-8.72,14.94-3.94,34.76,11.27,48l-.19.44L121,208.83l-58.95-7.17-.21,0h-.22c-1.88,0-3.77.09-5.59.22-19.66,1.4-37.45,9.21-47.58,20.92-6.07,7-9,15-8.4,23,1.49,20.47,25.82,35.73,55.52,35.73q3.07,0,6.23-.22c20.6-1.47,38.55-9.32,48-21a30.52,30.52,0,0,0,7.22-20.15l1.74-.21h0c.32,0,31.9-3.13,49.92-4.08q10.72,6.53,21.43,12.89l-.06,86a29.1,29.1,0,0,0,8.72,20.84,29.65,29.65,0,0,0,21,8.62l178.26.13h0a29.65,29.65,0,0,0,29.75-29.43l.18-270A29.11,29.11,0,0,0,419.32,44Zm-226,170c4.87-.36,9.47-.71,19-.83V213l29.24,10.24c-11.26.8-22.53,1.55-33.56,2.27l-2.67.18.09,1.32q-9.52-6.26-19.19-12.49C188.93,214.34,191.13,214.18,193.3,214Zm98.42,26.78-62.39,1.92v.07l-1.64-1.1-14.81-9.79c14.7-1,29.74-2,44.57-3.1ZM67.43,167c-14.13-11.11-19-28.36-11.64-41,8.47-14.49,30-17.92,48-7.63,9.89,5.64,17.06,14.48,19.68,24.24,2,7.42,1.16,14.54-2.37,20.59a59.21,59.21,0,0,1-3.93,4.54c-.69.76-1.29,1.4-1.62,1.79l-2.53,3,25.84,16-11.33,13.83-.17-.11-1,1.48-.35.43L68.22,167.58Zm42.71,70.62c.91,6.59-.94,12.79-5.51,18.43-8.32,10.28-24.5,17.21-43.29,18.55-28.78,2-53.25-11.1-54.58-29.3-.45-6.2,1.9-12.45,6.78-18.09,9-10.39,25.06-17.35,43-18.62,1.61-.12,3.28-.18,4.95-.2L124.26,216l3.41,16.12-18,2.09ZM130.28,212c9.88,6.32,18.91,11.89,28.43,17.69-8,.57-16.87,1.32-24.27,2Zm3-6.07,9.24-11.26c11.48,7,20.18,12.6,31.69,20l4.28,2.75c15.42,9.9,30.73,20,45.53,29.83l5.61,3.74v.09h.12c13.41,9,26.79,18.08,39.37,26.66l11.22,7.72,2.6,1.8c2.81,1.92,5.7,3.9,8.44,6a131.15,131.15,0,0,1,10.26,8.54c.94.89,1.9,1.81,2.85,2.76q-1.95-.68-3.78-1.38c-4-1.57-8.14-3.43-12.24-5.52-3.07-1.57-6.14-3.32-9.1-5l-2.71-1.54-11.86-6.71c-15.14-8.66-31.34-17.95-47.18-27.26-15.26-9-31.05-18.33-46.76-27.91C157.77,221.28,146.27,214.29,133.24,205.94ZM419.45,334.87a21.21,21.21,0,0,1-21.35,21h0l-178.27-.12a21.34,21.34,0,0,1-15.11-6.19,20.74,20.74,0,0,1-6.22-14.87l0-81.06c5.25,3.12,10.48,6.21,15.64,9.25,15.87,9.33,32.09,18.64,47.26,27.31l11.88,6.72,2.69,1.53c3,1.72,6.17,3.5,9.37,5.14a137.56,137.56,0,0,0,12.88,5.81,85.75,85.75,0,0,0,14.13,4.25,4,4,0,0,0,.69.06,3.87,3.87,0,0,0,2.25-.73,3.78,3.78,0,0,0,.8-5.3,84.58,84.58,0,0,0-9.95-10.82,138.56,138.56,0,0,0-10.81-9c-2.85-2.15-5.81-4.18-8.67-6.14L284.11,280l-11.24-7.73C262.71,265.28,252,258,241.22,250.74l66.57-2.05a5.45,5.45,0,0,0,1.64-10.59L198.58,199.27l.09-134.57a21.23,21.23,0,0,1,21.35-21h0l178.26.12A21.38,21.38,0,0,1,413.41,50a20.75,20.75,0,0,1,6.23,14.87Z" fill="#37c6d7"/><path d="M58.05,216.76c-16.78,1.19-30.23,6.29-36.89,14a18.47,18.47,0,0,0-4.76,13.84c1.09,15,18.7,26.14,40.19,26.14,1.47,0,2.95-.05,4.45-.16,14.14-1,26.95-6.65,34.27-15.11,4.46-5.16,6.6-11,6.17-16.93C100.37,223.27,83.72,214.93,58.05,216.76Zm32.19,34.3C84.06,258.2,73,263,60.57,263.87,40.8,265.27,24,256.4,23.09,244.1a11.8,11.8,0,0,1,3.15-9c5.42-6.26,17.49-10.63,32.28-11.68q2.86-.21,5.81-.21c14.59,0,29.6,4,30.46,15.77C95.09,243.11,93.51,247.28,90.24,251.06Z" fill="#37c6d7"/><path d="M116.22,160.43a24.36,24.36,0,0,0,2.25-18.75c-2.22-8.28-8.21-15.72-16.44-20.42-15.3-8.73-33.84-5.4-41.33,7.41a24.37,24.37,0,0,0-2.24,18.75c2.22,8.28,8.21,15.73,16.44,20.42a36.34,36.34,0,0,0,17.93,4.87C102.61,172.71,111.56,168.41,116.22,160.43Zm-5.79-3.38c-5.64,9.65-20.09,11.88-32.21,5-6.68-3.81-11.52-9.76-13.28-16.33a17.5,17.5,0,0,1,1.55-13.63c3.43-5.86,10.11-9,17.54-9a29.78,29.78,0,0,1,14.68,4c6.68,3.81,11.52,9.76,13.28,16.33A17.46,17.46,0,0,1,110.43,157.05Z" fill="#37c6d7"/><path d="M330.15,235.71a31.28,31.28,0,0,1,5.52,10.2,40,40,0,0,1,1.74,12.14,43.94,43.94,0,0,1-2.2,14.35A29.34,29.34,0,0,1,329,283a27.11,27.11,0,0,1-9.93,6.64,3,3,0,0,0,1.11,5.79,2.88,2.88,0,0,0,1.1-.22,33,33,0,0,0,12.09-8.12,35.1,35.1,0,0,0,7.5-12.69,50.4,50.4,0,0,0,2.53-16.3,46.27,46.27,0,0,0-2-14A37.44,37.44,0,0,0,334.83,232a50.23,50.23,0,0,0-11.53-10.22A109.8,109.8,0,0,0,306.74,213l-.17-.07a123.8,123.8,0,0,1-22-10.37,66.92,66.92,0,0,1-16.25-13.62A54.91,54.91,0,0,1,258.18,171a72.67,72.67,0,0,1-3.51-23.7,78.6,78.6,0,0,1,3.11-22.72A54.32,54.32,0,0,1,266.57,107a47.62,47.62,0,0,1,13.84-12.12,52.94,52.94,0,0,1,18.31-6.37l2.52-.41,0-21.85h16.17l0,22,2.47.45c13.95,2.5,24.43,9.4,32,21.11,6.92,10.65,10.76,25.11,11.4,43a2.58,2.58,0,0,1-.74,1.93,2.68,2.68,0,0,1-2,.83H344.46a2.66,2.66,0,0,1-2.69-2.5,86.35,86.35,0,0,0-1.89-14.49,55.76,55.76,0,0,0-6.06-16.12,3,3,0,0,0-5.18,3A49.81,49.81,0,0,1,334,139.86a80.64,80.64,0,0,1,1.76,13.49,8.65,8.65,0,0,0,8.67,8.19l16.16,0h0a8.77,8.77,0,0,0,6.27-2.67,8.51,8.51,0,0,0,2.42-6.3c-.68-19-4.84-34.48-12.37-46a52.13,52.13,0,0,0-33.53-23.25l0-23-28.17,0,0,22.79a58.08,58.08,0,0,0-17.85,6.66,53.52,53.52,0,0,0-15.58,13.64A60.3,60.3,0,0,0,252,122.88a84.84,84.84,0,0,0-3.37,24.44A78.81,78.81,0,0,0,252.51,173a61.1,61.1,0,0,0,11.23,19.85,73.38,73.38,0,0,0,17.69,14.85,130.32,130.32,0,0,0,23,10.85A104.08,104.08,0,0,1,320,226.74,44,44,0,0,1,330.15,235.71Z" fill="#37c6d7"/><path d="M356.88,212.9a71,71,0,0,0-17.38-14.71,139.2,139.2,0,0,0-23.18-11.14,104.24,104.24,0,0,1-16.42-8.48,48.2,48.2,0,0,1-10.43-8.95,27.76,27.76,0,0,1-5.46-10,44.52,44.52,0,0,1-1.68-12.74,55,55,0,0,1,1.72-14.15,29.51,29.51,0,0,1,5-10.5,22.72,22.72,0,0,1,8.13-6.6,26.92,26.92,0,0,1,11.72-2.36h0a3,3,0,0,0,0-6h0a32.63,32.63,0,0,0-14.33,3,28.61,28.61,0,0,0-10.27,8.33,35.64,35.64,0,0,0-6,12.6,60.86,60.86,0,0,0-1.92,15.71,50.7,50.7,0,0,0,1.92,14.45,33.74,33.74,0,0,0,6.63,12.17,53.74,53.74,0,0,0,11.72,10.09,110.29,110.29,0,0,0,17.48,9,133.59,133.59,0,0,1,22.28,10.7,65.38,65.38,0,0,1,15.93,13.45A52.52,52.52,0,0,1,362,234.32a75.44,75.44,0,0,1,3.29,23.43,73.63,73.63,0,0,1-3.48,23.34,53.87,53.87,0,0,1-9.68,17.64A47,47,0,0,1,337,310.55a64.27,64.27,0,0,1-20.28,6l-2.6.35,0,21.61H298.23l0-21.59-2.57-.37A63.55,63.55,0,0,1,277.36,311a46.82,46.82,0,0,1-15.43-12,3,3,0,0,0-4.55,3.9,52.65,52.65,0,0,0,17.41,13.5A69.5,69.5,0,0,0,292.25,322l0,22.44,27.84,0,0-22.4a69,69,0,0,0,19.57-6.18,53,53,0,0,0,17-13.32A60.11,60.11,0,0,0,367.45,283a79.51,79.51,0,0,0,3.78-25.24,81.28,81.28,0,0,0-3.59-25.3A58,58,0,0,0,356.88,212.9Z" fill="#37c6d7"/></g></svg>