<svg xmlns="http://www.w3.org/2000/svg" xmlns:xlink="http://www.w3.org/1999/xlink" viewBox="0 0 428.03 425.2"><defs><clipPath id="clip-path"><rect x="-9.8" y="-1567.42" width="1878.86" height="1145.94" fill="none"/></clipPath></defs><g id="ICONS"><g clip-path="url(#clip-path)"><image width="2880" height="10002" transform="translate(-41.47 -5311.2) scale(0.67)" xlink:href="../TEMPLATES/screencapture-localhost-3000-2021-04-28-15_57_21.png"/></g><path d="M205.23,60.36a32.21,32.21,0,0,0,3.62,1.71l-2.76,13.2a3.24,3.24,0,0,0,2.5,3.84,3.11,3.11,0,0,0,.67.07,3.24,3.24,0,0,0,3.17-2.58l2.69-12.82a29.51,29.51,0,0,0,4.7.39A30.18,30.18,0,0,0,228.11,63a30.09,30.09,0,1,0-22.88-2.64Zm8.16-49a23.6,23.6,0,0,1,29.19,16.24,23.62,23.62,0,1,1-29.19-16.24Z" fill="#8cc34c"/><path d="M156.66,303.68a49.63,49.63,0,0,0-4.88-3.05l5-14.61a3.24,3.24,0,0,0-6.13-2.11l-4.82,14a46.74,46.74,0,1,0,10.8,5.76Zm5.54,61.39a40.22,40.22,0,1,1,7-30A40,40,0,0,1,162.2,365.07Z" fill="#8cc34c"/><path d="M91.11,111.46,104,118.29a3.24,3.24,0,0,0,3-5.72l-13-6.9a49.17,49.17,0,1,0-2.91,5.79ZM6.48,86.79A42.43,42.43,0,1,1,48.9,129.22,42.47,42.47,0,0,1,6.48,86.79Z" fill="#8cc34c"/><path d="M400,312.62l-6.83,6.71c-2.57-3.08-9-12-17.07-31.38A206,206,0,0,1,367,260.11c-2.69-10.1-5-18.83-11.53-29.1-7.27-11.44-12.91-11.63-19.54-10.69-3,.43-5.44.77-8.6-1.2-12.31-7.63-16.3-6.5-21.78-4a22.54,22.54,0,0,1-8,2.28c-6.65.59-8.34-.44-11.72-2.52a45.86,45.86,0,0,0-11.11-5.19,18.09,18.09,0,0,0-20.11,5.54c-3.22-4.05-8.94-11.23-15.37-19.26.43-.67.84-1.34,1.24-2a54.85,54.85,0,0,0,7.35-27.45c0-1.33-.06-2.64-.15-3.94l29.76-9.39a53.63,53.63,0,1,0-2.17-6.11l-28.45,9a55,55,0,0,0-41.6-43l4-19.16a3.24,3.24,0,1,0-6.34-1.33L198.82,112a55.84,55.84,0,0,0-5.82-.31,54.79,54.79,0,0,0-44.51,22.86l-29.83-15.83a3.24,3.24,0,1,0-3,5.72L145,140a54.65,54.65,0,0,0-.89,51.27L99.48,217.1a30,30,0,1,0,3.43,5.51l44.47-25.76a55.08,55.08,0,0,0,25.49,20.62l-17.18,51.87a3.25,3.25,0,0,0,2.06,4.1,3.29,3.29,0,0,0,1,.16,3.23,3.23,0,0,0,3.07-2.22L179,219.5A54.84,54.84,0,0,0,214,217.14c1.1,1.51,2.2,3.05,3.33,4.6,6.62,9.13,12.33,17,14.94,21.41,15.9,26.72,20.29,38.86,21.41,44.1-5.77-5-10.19-10.81-17.52-21.64a35.31,35.31,0,0,0-26.69-14.9c-6.93-.23-12.71,2.12-16.29,6.67-2.48,3.16-3.85,5.48-3.46,8s2.33,3.82,4.21,5.11c2.61,1.8,6.57,4.51,10.25,12,5.12,10.38,7.23,12.58,11.45,17a188,188,0,0,1,16.18,19.09c13.6,17.83,21.35,21.33,34.18,27.12a247.71,247.71,0,0,1,23.84,12c20.94,12.06,33.78,20.1,39.92,24l-2.52,2.48-3,2.95h0l-2.43,2.39,34.4,31.74,2.17-1.65a239,239,0,0,0,68.49-82.42l1.19-2.36ZM326.48,85.43a46.83,46.83,0,1,1-46.83,46.82A46.88,46.88,0,0,1,326.48,85.43ZM75.76,259.22A23.62,23.62,0,1,1,99.38,235.6,23.64,23.64,0,0,1,75.76,259.22Zm117.24-47a45.82,45.82,0,1,1,40.16-23.87c-6.81-8.47-13.8-17.11-19.11-23.54-11.31-13.71-19.07-14.71-23.59-13.13s-7.23,6.35-7.34,13.06c-.14,7.47,10.42,23.75,25.4,44.77A45.54,45.54,0,0,1,193,212.24ZM293,352a253.38,253.38,0,0,0-24.4-12.32c-12.71-5.74-19.09-8.62-31.7-25.15a197,197,0,0,0-16.66-19.66c-4-4.14-5.64-5.85-10.31-15.33-4.43-9-9.42-12.39-12.4-14.43-.43-.3-.93-.64-1.28-.91a19.57,19.57,0,0,1,2-2.84c2.26-2.88,6.16-4.37,11-4.2a28.48,28.48,0,0,1,21.55,12.05c9,13.34,14.25,20,23.22,26.53l1,.74,1.25-.14a4.5,4.5,0,0,0,3.48-2.63c1.14-2.3,4.63-9.29-21.92-53.91-2.76-4.64-8.55-12.63-15.26-21.89-12.38-17.08-33.09-45.67-33-53.07.06-3.78,1.19-6.42,3-7.05,2.61-.91,8.47,1.46,16.45,11.13,14.85,18,43,53.4,43.24,53.75l3.2,4,2.26-4.61c.48-1,5-9.48,15-6.26a39.47,39.47,0,0,1,9.7,4.55c4.28,2.63,7.33,4.19,15.69,3.44A28.57,28.57,0,0,0,308.22,221c3.8-1.72,5.71-2.58,15.7,3.62,5.17,3.21,9.47,2.6,12.93,2.1,4.55-.64,7.55-1.07,13.16,7.76,6,9.42,8.08,17.31,10.74,27.29a210.62,210.62,0,0,0,9.34,28.65c8.54,20.66,15.52,30.08,18.43,33.46L334.46,377C328.83,373.39,315.58,365,293,352Zm89.23,37.39a231,231,0,0,1-25.7,23.37l-25.39-23.43L353,367.93h0l47.48-46.68,19.4,15.36A232.53,232.53,0,0,1,382.27,389.42Z" fill="#8cc34c"/></g></svg>