<svg xmlns="http://www.w3.org/2000/svg" viewBox="0 0 428.03 425.2"><g id="ICONS"><path d="M130.74,78.24a2.87,2.87,0,0,1-1.68-5.19,136.76,136.76,0,0,1,80.57-26,138.32,138.32,0,0,1,36.06,4.77,2.86,2.86,0,1,1-1.5,5.53,132.38,132.38,0,0,0-34.56-4.57A131.06,131.06,0,0,0,132.41,77.7,2.87,2.87,0,0,1,130.74,78.24Z" fill="#ff5f6d"/><path d="M146.59,316.26A141.21,141.21,0,0,1,74.21,193.07a3.06,3.06,0,1,0-6.12,0A147.33,147.33,0,0,0,143.61,321.6a3.05,3.05,0,0,0,4.16-1.18A3,3,0,0,0,146.59,316.26Z" fill="#ff5f6d"/><path d="M357.76,172.29a3.07,3.07,0,0,0-2.67,3.41,141.25,141.25,0,0,1-34.33,110.79,3,3,0,0,0,2.29,5.08,3,3,0,0,0,2.29-1,146.86,146.86,0,0,0,36.93-97.47,149.89,149.89,0,0,0-1.1-18.12A3.06,3.06,0,0,0,357.76,172.29Z" fill="#ff5f6d"/><path d="M423.91,79.59A4.13,4.13,0,0,0,428,75.46V48.36A18.39,18.39,0,0,0,409.66,30H272.6a18.39,18.39,0,0,0-18.37,18.37v95.13a18.39,18.39,0,0,0,18.37,18.37H409.66A18.39,18.39,0,0,0,428,143.49V100.76a4.13,4.13,0,0,0-8.25,0v42.73a10.13,10.13,0,0,1-10.12,10.12H272.6a10.13,10.13,0,0,1-10.12-10.12V48.36A10.12,10.12,0,0,1,272.6,38.25H409.66a10.12,10.12,0,0,1,10.12,10.11v27.1A4.13,4.13,0,0,0,423.91,79.59Z" fill="#ff5f6d"/><path d="M358.43,141.05h53.35L365,57.25l-26.3,49.59-18.12-31.4-37.88,65.61h75.76Zm-16.09-28.54,22.77-42.93,36.62,65.58H355l-13.25-23Zm-49.47,22.65,27.68-47.93,27.67,47.93H292.87Z" fill="#ff5f6d"/><path d="M311.33,65.41a16.26,16.26,0,1,0-16.26,16.26A16.28,16.28,0,0,0,311.33,65.41Zm-26.62,0a10.37,10.37,0,1,1,10.36,10.36A10.37,10.37,0,0,1,284.71,65.41Z" fill="#ff5f6d"/><path d="M38.73,88.25l61.63-14.61c5.87,23.75,10.84,42.68,16.6,63.29a53.37,53.37,0,0,0-21.34,10.66c-16,13-21.15,27.93-13,37.92,8.69,10.69,27.1,9.63,41.9-2.42,12-9.76,21.7-31.05,16.26-42.43-6.92-24.33-25.25-95.07-25.43-95.78l-1-4.06L10.6,65.44l1,4.16c.07.27,14.94,57.12,23.1,86.51a41.78,41.78,0,0,0-20.56,9C-.13,176.71-4.14,192.93,4.6,203.67c4,4.94,10.1,7.37,17,7.37,8,0,17-3.3,25-9.78,12-9.74,17.38-28,11.76-39.44C51.48,138.05,45.57,115.8,38.73,88.25ZM41.1,194.61c-10.71,8.72-24.38,10.39-29.86,3.66-5.7-7-2.29-17.92,8.29-26.52,7.31-5.94,14.69-7.21,20.94-7.67l5.24-.38-1.43-5c-6.49-23-19.46-72.3-23.28-86.88l87.08-20.68c4,15.57,18.63,71.57,24.54,92.3l.13.43.2.39c3.22,6.14-3.16,23.54-13.86,32.24s-24.38,10.39-29.86,3.66,2-17.88,11.79-25.88c7.91-6.43,16.39-9.14,21.69-9.53l5.23-.38-1.42-5c-6.65-23.56-12.11-44.36-18.86-71.8l-1-4.12L28.34,81.91l1,4.19c7.35,29.78,13.56,53.25,20.76,78.46l.12.43.2.39C54.06,172.24,50.69,186.82,41.1,194.61Z" fill="#ff5f6d"/><path d="M239.69,245.5a85.12,85.12,0,1,0,85,85A85.13,85.13,0,0,0,239.69,245.5Zm75.11,99.08a76.45,76.45,0,0,1-75.11,62.35,76.4,76.4,0,1,1,76.39-76.4A77.46,77.46,0,0,1,314.8,344.58Z" fill="#ff5f6d"/><path d="M270,319.57a3.1,3.1,0,0,0,1.13,4.22l11.69,6.74-67.43,38.93V291.6l33.71,19.47a3.08,3.08,0,1,0,3.09-5.34l-43-24.81v99.23l85.94-49.62-20.94-12.09A3.1,3.1,0,0,0,270,319.57Z" fill="#ff5f6d"/></g></svg>