<svg xmlns="http://www.w3.org/2000/svg" xmlns:xlink="http://www.w3.org/1999/xlink" viewBox="0 0 428.03 425.2"><defs><clipPath id="clip-path"><rect x="-617.22" y="-1567.42" width="1878.86" height="1145.94" fill="none"/></clipPath></defs><g id="ICONS"><g clip-path="url(#clip-path)"><image width="2880" height="10002" transform="translate(-648.89 -5311.2) scale(0.67)" xlink:href="../TEMPLATES/screencapture-localhost-3000-2021-04-28-15_57_21.png"/></g><path d="M200.43,49.68c1.37,0,2.79,0,4.22.12,26.94,1.53,47,30,47.18,30.31a3.29,3.29,0,0,0,5.42-3.73c-.22-.32-22-31.44-52.22-33.16-1.56-.08-3.11-.13-4.6-.13-39.1,0-61.52,28.38-63.46,56.4-2.33,33.53,23.21,65.76,42.63,87.09a3.28,3.28,0,0,0,4.65.22,3.3,3.3,0,0,0,.22-4.65c-18.6-20.44-43.09-51.19-40.93-82.2C145.27,75,165.36,49.68,200.43,49.68Z" fill="#f8aa22"/><path d="M357.06,188.32a3.29,3.29,0,0,0,4.65-.13c14.24-15.1,34-38.11,41.32-63.47a3.29,3.29,0,0,0-6.33-1.82c-6.91,24-26,46.17-39.78,60.77A3.3,3.3,0,0,0,357.06,188.32Z" fill="#f8aa22"/><path d="M339.05,51c1,0,2-.06,2.93-.06,20.58,0,37.66,8.47,48.08,23.86a3.3,3.3,0,0,0,5.46-3.7C383.83,53.82,364.81,44.32,342,44.32c-1.05,0-2.12,0-3.2.07a3.3,3.3,0,0,0-3.16,3.42A3.34,3.34,0,0,0,339.05,51Z" fill="#f8aa22"/><path d="M377.16,294.75c-9.11,1-24.17,5.45-37.69,9.69a3.25,3.25,0,0,0-1.17.64c-3.78-.08-11.17-.41-15.66-1.68-7.44-2.09-48.07,4.46-58.09,7.23l-14.1-3.93-.15,0c-14.87-3.39-32.28-8.44-35-10.83-.26-.74.3-2.17,1.46-3.74,5.17-5.83,15.39-16.07,26.46-20l2.26-.8c7.86,5.41,15.44,10.29,22,14.13l2.29,1.36,2.32-1.32c30-17,75.91-50.63,105.68-82.18,22.56-23.92,52.31-60.6,50.14-102.64a81.61,81.61,0,0,0-26.16-55.92c-16.65-15.44-39.32-23.42-63.84-22.45C304.78,23.62,280.77,48.2,271.78,59,263,48.05,239.41,23.06,206.29,21.18c-24.5-1.4-47.31,6.17-64.23,21.32A81.59,81.59,0,0,0,114.94,98c-2.92,42,26.19,79.17,48.34,103.5a331.68,331.68,0,0,0,31.6,30.75c-16.57.85-40,2.22-42.67,3.26-.31.09-1.45.3-2.55.49-9,1.58-36.06,6.36-71.27,29.06-2.21.1-3.44.32-4.48,1.19-1.35.36-6.49,1-24.59,1.66L47.2,256.28,3.56,258.76l-.39,2.66A300,300,0,0,0,14,395.59l.84,2.63,57-7.58-2.93-16.05,3,.16c8,.43,19,1,25.48,1.81L150,384.63l.23,0,2.48.21a95.79,95.79,0,0,0,13.58,1.27c7.52.77,14.09,1.55,19.52,2.32,2.84.55,5,.89,7,1.09h0a19.28,19.28,0,0,0,3.4.3,22.27,22.27,0,0,0,2.67-.17,19.16,19.16,0,0,0,5-1,18.1,18.1,0,0,0,3.72-1.94,36.7,36.7,0,0,0,8.18-6.51c17.36-14.71,43.68-14.3,64.91-14,13,.21,24.15.39,31.2-2.87,15.09-7,62.44-17.59,84.22-20.94l.47,0c10.46.5,14.79-3.23,16.58-6.45a12.18,12.18,0,0,0,.5-10c3.34-1.31,5.54-3.33,6.57-6,1.63-4.34-.2-9.82-5-15C406.71,295.94,395,292.79,377.16,294.75Zm-207.07-99.5c-21-23.08-48.62-58.2-45.95-96.65,2.43-35.19,31.86-71,81.62-68.22,37,2.11,61.89,38.41,62.13,38.77l3.75,5.57,3.86-5.5c.25-.36,25.8-36.24,62.79-37.69,49.81-1.92,78.59,34.43,80.42,69.64,2,38.51-26.24,73.14-47.64,95.84-28.38,30.07-71.8,62.15-101.19,79.15-4.24-2.56-8.88-5.52-13.72-8.75,18.33-7.19,40.87-18.66,37.33-34.55a17.07,17.07,0,0,0-7.85-11.35c-8.08-4.92-19.2-2.75-21.68-2.18-2.88-.06-17.44.17-34.84,7.95a107.43,107.43,0,0,1-17.26,4.29c-1,.15-2,.27-2.9.37A327.89,327.89,0,0,1,170.09,195.25ZM19.46,391A293.45,293.45,0,0,1,9.31,265l32.46-1.84L57,346.35h0l4,22.15,3,16.52ZM309,357.4c-5.68,2.63-16.18,2.47-28.33,2.27-12.64-.2-27-.43-40.55,2.36a101.38,101.38,0,0,1,10.42-4.32c5.65-1.9,17.85-3.23,30.77-4.64,15.32-1.67,31.16-3.39,41.25-6.47,9.39-2.88,25.23-4.1,40.61-4.48C342,346.81,318.88,352.85,309,357.4Zm98.29-24.59a5.65,5.65,0,0,1-3.32,2.34c-2,.58-3.2.66-8.28.68-7.86-.33-54-2-75.05,4.47-9.5,2.9-25.72,4.67-40,6.22-13.86,1.51-25.83,2.82-32.16,5-12.91,4.36-29.5,14.43-30.2,14.86l-.74.45-.43.76a45.09,45.09,0,0,1-6,7.92c-.27.23-.55.45-.81.69a3,3,0,0,0-.56.68,28.06,28.06,0,0,1-5.57,4.2l-.21.13a11.8,11.8,0,0,1-2.41,1.3,12.65,12.65,0,0,1-3.36.66l-.15,0a14.08,14.08,0,0,1-4.21-.08l-.32-.05c-1.82-.18-3.85-.5-6.58-1l-.17,0c-5.59-.79-12.34-1.59-20.07-2.38l-.21,0h-.21a91.48,91.48,0,0,1-12.79-1.22l-.18,0-2.48-.21L98.23,370c-6.8-.84-17.92-1.43-26-1.86l-4.45-.25h-.1L50.52,274.42c22.13-.85,25.71-1.6,27.19-2.75.33,0,.89-.07,1.81-.1l.92,0,.78-.5c34.45-22.39,60.89-27.06,69.58-28.59a24.59,24.59,0,0,0,3.65-.79c2.73-.69,25.14-2.1,45.07-3.09,1,.13,2.12.2,3.27.23l.88.73.58-.71a59.84,59.84,0,0,0,8.59-.74,111.83,111.83,0,0,0,18.6-4.63l.25-.1c17.59-7.9,32.35-7.44,32.49-7.43l.49,0,.48-.12c.1,0,10.55-2.67,17.08,1.32a10.59,10.59,0,0,1,4.83,7.15c3.19,14.32-32.53,26.9-46,31.63-11.9,4.19-22.5,14.23-29.29,21.92l-.16.2c-3.9,5.16-3.22,8.92-2,11.15,2.64,4.72,22.7,10.15,39.1,13.88l15.89,4.43,1-.31c8.22-2.66,49.71-9,55.25-7.45,7.09,2,19.35,2,19.88,2h.17c.13,0,12.9-.74,33,0,17.57.68,25.41,5.61,29.79,10.6,0,0,2.93,3.37,3.44,5.18S408.07,331.48,407.33,332.81ZM414,317.66c-.39,1-1.66,1.91-3.63,2.52-7.2-9.68-18.44-14.35-36.23-15-4.68-.18-8.94-.28-12.76-.33a117.7,117.7,0,0,1,16.52-3.52c20-2.19,27.8,3.2,32.4,8.15C413.17,312.56,414.66,315.86,414,317.66Z" fill="#f8aa22"/></g></svg>