<svg xmlns="http://www.w3.org/2000/svg" viewBox="0 0 428.03 425.2"><g id="ICONS"><path d="M379.49,387.68V202.29a22.19,22.19,0,0,0-22.2-22.2H253c.55-.81,1.11-1.62,1.65-2.44l8.24-11.23c1-1.27,2-2.55,3.05-3.82,1.83-2.32,3.57-4.51,5.34-6.55,1.07-1.18,2.1-2.37,3.12-3.54,1.79-2,3.48-4,5.21-5.74,1-1,2-2.06,3-3.06,1.69-1.73,3.29-3.36,4.74-4.72l6.78-6c.4-.38.85-.77,1.32-1.15L315.4,158.5l15.1-68.92L253.65,76l21.29,28.44-.84,1c-.47.56-1,1.11-1.51,1.7-1.08,1.19-2.31,2.54-3.73,4.4L262,120.32c-1.56,2.18-3,4.43-4.6,6.81-.75,1.14-1.52,2.31-2.33,3.52-1.62,2.46-3.07,5-4.6,7.67-.76,1.33-1.54,2.68-2.36,4.08-1.55,2.71-3,5.56-4.41,8.32-.73,1.44-1.47,2.89-2.28,4.44-1.8,3.76-3.68,7.83-6.14,13.31-.62,1.53-1.26,3.05-1.9,4.57-1,2.31-1.95,4.68-2.87,7.05H220.34L234,64.22h38.9V59.57L213,1,153.19,59.57v4.65h38.9l13.62,115.87H192.17c-1-2.77-2.2-5.55-3.33-8.24-.65-1.57-1.31-3.14-2-4.71l-6.2-13.52-.06-.14q-1.17-2.23-2.29-4.46c-1.41-2.8-2.88-5.69-4.46-8.49q-1.23-2.11-2.41-4.19c-1.54-2.7-3-5.25-4.62-7.76q-1.23-1.86-2.4-3.66c-1.56-2.39-3-4.65-4.58-6.84l-6.91-9c-1.45-1.94-2.7-3.31-3.8-4.53-.54-.59-1-1.15-1.59-1.79l-.88-1L168,73.44,91.13,86.81,106,155.76l20-26.51c.58.47,1.09.91,1.55,1.36l6.76,6c1.53,1.48,3.13,3.13,4.82,4.87l3.07,3.14c1.76,1.82,3.48,3.81,5.3,5.92,1,1.19,2.07,2.4,3.11,3.56,1.82,2.13,3.57,4.37,5.42,6.73,1,1.31,2.06,2.63,3.12,3.94l8.33,11.5c.84,1.27,1.7,2.54,2.56,3.8H70.74a22.23,22.23,0,0,0-22.21,22.2V387.68H35.3V409.3c0,8.92,9.76,15.9,22.2,15.9h313c12.45,0,22.2-7,22.2-15.9V387.68ZM239,175.4c.65-1.54,1.3-3.09,1.89-4.54,2.4-5.33,4.26-9.37,6-13,.77-1.48,1.52-2.95,2.27-4.41,1.43-2.82,2.78-5.48,4.23-8,.82-1.39,1.61-2.76,2.39-4.12,1.48-2.6,2.89-5.05,4.39-7.33.81-1.21,1.58-2.39,2.35-3.55,1.52-2.33,3-4.53,4.39-6.52l6.77-8.75c1.27-1.66,2.36-2.85,3.4-4,.59-.65,1.14-1.25,1.62-1.82l4.07-4.59L267.71,84.66l55.51,9.8L312.3,144.23l-15.64-20.9-2.43,1.83a52,52,0,0,0-4.17,3.36l-6.78,6c-1.61,1.51-3.25,3.19-5,5-1,1-2,2-3,3-1.87,1.89-3.63,3.91-5.48,6-1,1.14-2,2.29-3.08,3.49-1.91,2.19-3.77,4.54-5.57,6.82-1,1.26-2,2.54-3,3.81l-8.42,11.46-.07.12q-1.38,2.06-2.78,4.09l-1.2,1.77h-8.59C237.69,178.55,238.34,177,239,175.4ZM197.49,58.15H163.33L213,9.5l49.69,48.65H228.56L214.23,180.09h-2.41ZM175.29,177q-1.41-2.07-2.78-4.14l-.08-.12L164,161.17l-.1-.13c-1.06-1.31-2.09-2.63-3.12-3.94-1.81-2.31-3.68-4.69-5.62-7-1.06-1.19-2.08-2.37-3.09-3.54-1.88-2.18-3.65-4.23-5.56-6.2-1-1-2.06-2.1-3.05-3.12-1.74-1.8-3.39-3.5-5-5.05l-6.82-6.07a37.26,37.26,0,0,0-3.34-2.79l-3.46-2.7-15.71,20.85L98.4,91.71l55.54-9.66-15.09,20,4.12,4.66c.53.63,1.09,1.25,1.69,1.91,1.06,1.17,2.16,2.39,3.47,4.12l6.81,8.86c1.47,2.09,2.9,4.29,4.43,6.61l2.4,3.67c1.52,2.34,2.93,4.81,4.42,7.43.81,1.41,1.62,2.84,2.43,4.22,1.48,2.64,2.85,5.34,4.31,8.2.75,1.48,1.5,3,2.28,4.46l6.07,13.26c.65,1.58,1.31,3.15,2,4.72.85,2,1.66,4,2.42,5.89h-8.32ZM57,202.29a13.71,13.71,0,0,1,13.7-13.7H357.29a13.73,13.73,0,0,1,13.7,13.7V387.68H57Zm327.19,207c0,3.49-5.86,7.39-13.7,7.39H57.5c-7.84,0-13.69-3.9-13.69-7.39V396.18H384.23Z" fill="#6a82fb"/><path d="M266.54,373.49H71.27a3.86,3.86,0,0,1-3.85-3.85V207.31a3.86,3.86,0,0,1,3.85-3.85h23.5a2.43,2.43,0,0,0,0-4.86H71.27a8.72,8.72,0,0,0-8.71,8.71V369.64a8.71,8.71,0,0,0,8.71,8.7H266.54a2.43,2.43,0,1,0,0-4.85Z" fill="#6a82fb"/><path d="M355.06,198.6h-215a2.43,2.43,0,0,0,0,4.86h215a3.86,3.86,0,0,1,3.85,3.85V369.64a3.86,3.86,0,0,1-3.85,3.85h-28.2a2.43,2.43,0,1,0,0,4.85h28.2a8.71,8.71,0,0,0,8.71-8.7V207.31A8.72,8.72,0,0,0,355.06,198.6Z" fill="#6a82fb"/><path d="M214,234.43l-17.24,34.93L158.24,275l27.89,27.18-6.59,38.39L214,322.41l34.47,18.12-6.58-38.39L269.8,275l-38.55-5.6ZM235.38,300l5,29.41L214,315.55l-26.41,13.88,5-29.41L171.29,279.2l29.52-4.29L214,248.15l13.2,26.76,29.52,4.29Z" fill="#6a82fb"/></g></svg>