<svg xmlns="http://www.w3.org/2000/svg" xmlns:xlink="http://www.w3.org/1999/xlink" viewBox="0 0 1700.79 1296.92"><defs><clipPath id="clip-path"><rect x="345.47" y="-1446.38" width="1706.48" height="1064.56" fill="none"/></clipPath></defs><g id="LOGO"><path d="M752.06,365.43a47.29,47.29,0,0,0-67.9-40.9,58.47,58.47,0,0,0-88.19-35,66,66,0,0,0-127.23,7.07,66,66,0,0,0-79.16,32.45,47.28,47.28,0,0,0-75.35,36.38Z" fill="#fff"/><path d="M1611.37,168a63.19,63.19,0,0,0-90.74-54.65,78.13,78.13,0,0,0-117.85-46.76,88.18,88.18,0,0,0-170,9.44A88.2,88.2,0,0,0,1127,119.4,63.16,63.16,0,0,0,1026.28,168Z" fill="#fff"/><path d="M1695.14,721.73a57.31,57.31,0,0,0-82.29-49.56A70.87,70.87,0,0,0,1506,629.75a80,80,0,0,0-154.2,8.57,80,80,0,0,0-96,39.33,57.29,57.29,0,0,0-91.32,44.08Z" fill="#fff"/><path d="M139.92,1242.32c-62.1,0-83.33-24.82-90.56-42.54-14.87-36.41,10.48-81.3,42.5-102,42-27.2,52.06-48.93,53.06-62.37a31.18,31.18,0,0,0-9.26-24.73,7.43,7.43,0,0,1,9.71-11.25,46.23,46.23,0,0,1,14.39,36.7c-1.64,24.56-21.77,49.49-59.83,74.12-27.16,17.57-48.43,55.49-36.82,83.93,13.14,32.19,65.45,41.54,143.51,25.63,235.42-48,478.68-38.63,530.88,1.39a7.43,7.43,0,0,1-9,11.79c-22.92-17.58-94.69-29.32-187.3-30.65-105-1.48-222.8,9.87-331.57,32C182,1240,159,1242.32,139.92,1242.32Z" fill="#b6d2d3"/><path d="M781,460.67c-14,32.69-38.87,93.62-50.21,111.37-14.64,22.89-17.78-11.22-13.91-36.4,2.42-15.66,20.18-82.11,39.91-125.93a291.85,291.85,0,0,0-31.89-29.37c-9.82,20-42.17,95.57-53.85,113.84-12.85,20.11-18.49,7.28-15.09-14.84,2.13-13.87,21.35-68.19,38.74-106.76-9.3-5.81-23.49-11.25-33.48-16.28C650,380.33,637,407.2,630,418.21c-12.84,20.11-18.48,7.28-15.09-14.83,1.36-8.84,7-34.11,18.64-61.24-9.65-3.71-24-7-34-9.89-5.07,16.9-10.37,33.79-13.82,41.57-7.47,16.93-20.19,8.8-20.2-8.52,0-5.84,3.41-21.38,7.92-39.4-18-3.65-49.82-28.39-68.23-28.91,0,0,11.43,34.24,9.47,53.32,11.27,2.93,20.1,5.58,23.79,7.49,15.36,8,16.68,23-1.79,21.86-5.28-.33-14.06-1.66-24.1-3.43-.59,9.71-1,20.32-1.12,31.58,16.92,1.65,30.5,3.43,36,5.33,21.18,7.21,21.27,26.12-2.49,28.22-7.83.69-21.75.62-37.38.21.52,10.41,10.39,30.08,11.65,40.87,37,2.41,72.12,10.22,82.7,13.82,21.18,7.2,25.78,12.61,2,14.71-15.38,1.36-63.21-.27-92.35-1.51a306.93,306.93,0,0,0,9.44,34.83c42.38,2.38,112.72,20,126.28,24.66,21.19,7.19,34.8,17.09,11,19.2-19.45,1.73-91.52-4.35-121.1-6.46a175,175,0,0,0,25.42,35.65c89.27,95.81,256.14,92.1,252.5-47.93C814.21,531.84,802.15,495.33,781,460.67Z" fill="#80bf8b"/><path d="M764.57,637.91c35.34-42.52,25.43-93.93.65-140-12.6,29.66-26.66,62-34.41,74.1-14.64,22.89-17.78-11.22-13.91-36.4,1.64-10.59,10.27-44.36,21.81-78.67A443.77,443.77,0,0,0,707,419.55c-13,28.78-28.57,63.11-35.94,74.63-12.85,20.11-18.49,7.28-15.09-14.84,1.71-11.1,14.36-48.14,28.27-82.27-7.79-7-18.28-15.83-30.24-25.51-9.21,19.3-18.43,37.95-24,46.65-12.84,20.11-18.48,7.28-15.09-14.83,1.2-7.74,5.67-28.13,14.61-51.32-7.52-5.91-15.26-11.92-23-17.9-2.46-.66-4.83-1.3-7-1.91-5.07,16.9-10.37,33.79-13.82,41.57-7.47,16.93-20.19,8.8-20.2-8.52,0-5.84,3.41-21.38,7.92-39.4-18-3.65-49.82-28.39-68.23-28.91,0,0,11.43,34.24,9.47,53.32,11.27,2.93,20.1,5.58,23.79,7.49,15.36,8,16.68,23-1.79,21.86-5.28-.33-14.06-1.66-24.1-3.43-.59,9.71-1,20.32-1.12,31.58,16.92,1.65,30.5,3.43,36,5.33,21.18,7.21,21.27,26.12-2.49,28.22-7.83.69-21.75.62-37.38.21.52,10.41,10.39,30.08,11.65,40.87,37,2.41,72.12,10.22,82.7,13.82,21.18,7.2,25.78,12.61,2,14.71-15.38,1.36-63.21-.27-92.35-1.51a306.93,306.93,0,0,0,9.44,34.83c42.38,2.38,112.72,20,126.28,24.66,21.19,7.19,34.8,17.09,11,19.2-19.45,1.73-91.52-4.35-121.1-6.46a175,175,0,0,0,25.42,35.65A207.81,207.81,0,0,0,590,641.91C650.11,670.23,725.14,685.33,764.57,637.91Z" fill="#80bf8b"/><g opacity="0.5"><path d="M633.56,342.14c-7.57-2.92-18-5.58-27-8,7.76,6,15.5,12,23,17.9C630.79,348.8,632.13,345.47,633.56,342.14Z" fill="#55875c"/></g><g opacity="0.5"><path d="M815.18,569.41c-1-37.57-13-74.08-34.16-108.74-4.44,10.35-10,23.53-15.8,37.27,24.78,46,34.69,97.45-.65,140-39.43,47.42-114.46,32.32-174.55,4C682.13,711.19,818.47,696.14,815.18,569.41Z" fill="#55875c"/></g><g opacity="0.5"><path d="M756.81,409.71a291.85,291.85,0,0,0-31.89-29.37c-3.64,7.39-10.32,22.34-17.91,39.21A443.77,443.77,0,0,1,738.71,457C744.23,440.49,750.42,423.91,756.81,409.71Z" fill="#55875c"/></g><g opacity="0.5"><path d="M694.72,372.58c-9.3-5.81-23.49-11.25-33.48-16.28-2.37,5-4.8,10.16-7.23,15.26,12,9.68,22.45,18.48,30.24,25.51C687.71,388.59,691.25,380.27,694.72,372.58Z" fill="#55875c"/></g><path d="M505.2,297S650.87,465,748.35,662.73s90.58,179,90.58,179l-32.47.46S653.5,472.29,505.2,297Z" fill="#55875c"/><path d="M1456.07,598.22c-24.55-11.51-70.32-32-83.56-41.06-17.06-11.73,9-13.26,28.08-9.67,11.87,2.24,62,17.44,94.9,33.59a223.69,223.69,0,0,0,23.18-23.55c-15-8-71.72-34.54-85.34-43.9-15-10.3-5.08-14.27,11.68-11.12,10.51,2,51.4,18,80.33,32.21,4.66-6.93,9.17-17.6,13.25-25.09-18-9.2-38.15-19.71-46.36-25.34-15-10.3-5.08-14.27,11.68-11.12,6.7,1.26,25.8,6.19,46.17,15.74,3.07-7.25,6-18.11,8.39-25.67-12.74-4.29-25.47-8.75-31.31-11.57-12.7-6.12-6.19-15.61,7-15.17,4.44.15,16.19,3.14,29.8,7,3.24-13.59,22.89-37.23,23.75-51.23,0,0-26.36,7.83-40.85,5.86-2.52,8.51-4.76,15.17-6.31,17.92-6.5,11.5-18,12.12-16.6-1.91.39-4,1.62-10.67,3.22-18.27-7.38-.7-15.45-1.28-24-1.65-1.68,12.84-3.38,23.14-5,27.3-6,15.95-20.43,15.54-21.43-2.62-.32-6,.08-16.58.79-28.47-7.94.13-23.17,7.15-31.42,7.84-2.78,28.13-9.62,54.67-12.62,62.63-6,15.95-10.26,19.32-11.26,1.16-.65-11.75,1.81-48.14,3.49-70.3A236.06,236.06,0,0,0,1399,398.1c-2.88,32.22-18.11,85.34-22,95.56-6,15.95-13.9,26.06-14.9,7.91-.83-14.86,5.63-69.59,8-92.07a133.27,133.27,0,0,0-27.8,18.45c-75.23,65.56-76.64,192.76,30.11,193.54C1401,621.7,1429.13,613.44,1456.07,598.22Z" fill="#80bf8b"/><path d="M1321.49,581.2c31.49,28,70.89,21.75,106.59,4-22.28-10.34-46.52-21.87-55.57-28.08-17.06-11.73,9-13.26,28.08-9.67,8,1.51,33.53,8.94,59.37,18.6a336.75,336.75,0,0,0,29.3-23.2c-21.59-10.61-47.34-23.35-55.93-29.26-15-10.3-5.08-14.27,11.68-11.12,8.42,1.59,36.31,12.16,61.94,23.62,5.56-5.75,12.53-13.52,20.2-22.39-14.46-7.5-28.43-15-34.92-19.45-15-10.3-5.08-14.27,11.68-11.12a212.49,212.49,0,0,1,38.72,12.43c4.69-5.59,9.46-11.33,14.21-17.08.56-1.86,1.12-3.65,1.63-5.28-12.74-4.29-25.47-8.75-31.31-11.57-12.7-6.12-6.19-15.61,7-15.17,4.44.15,16.19,3.14,29.8,7,3.24-13.59,22.89-37.23,23.75-51.23,0,0-26.36,7.83-40.85,5.86-2.52,8.51-4.76,15.17-6.31,17.92-6.5,11.5-18,12.12-16.6-1.91.39-4,1.62-10.67,3.22-18.27-7.38-.7-15.45-1.28-24-1.65-1.68,12.84-3.38,23.14-5,27.3-6,15.95-20.43,15.54-21.43-2.62-.32-6,.08-16.58.79-28.47-7.94.13-23.17,7.15-31.42,7.84-2.78,28.13-9.62,54.67-12.62,62.63-6,15.95-10.26,19.32-11.26,1.16-.65-11.75,1.81-48.14,3.49-70.3A236.06,236.06,0,0,0,1399,398.1c-2.88,32.22-18.11,85.34-22,95.56-6,15.95-13.9,26.06-14.9,7.91-.83-14.86,5.63-69.59,8-92.07a133.27,133.27,0,0,0-27.8,18.45,159.3,159.3,0,0,0-19.41,20.21C1299.78,493.2,1286.37,550,1321.49,581.2Z" fill="#80bf8b"/><g opacity="0.5"><path d="M1550.08,488.91c2.41-5.69,4.7-13.6,6.76-20.39-4.75,5.75-9.52,11.49-14.21,17.08C1545.08,486.63,1547.58,487.74,1550.08,488.91Z" fill="#55875c"/></g><g opacity="0.5"><path d="M1372.38,621.49c28.64.21,56.75-8,83.69-23.27-7.78-3.65-17.67-8.18-28-13-35.7,17.71-75.1,24-106.59-4-35.12-31.24-21.71-88,1.37-133C1267.76,516.55,1275.77,620.78,1372.38,621.49Z" fill="#55875c"/></g><g opacity="0.5"><path d="M1495.49,581.08a223.69,223.69,0,0,0,23.18-23.55c-5.53-3-16.76-8.43-29.41-14.64a336.75,336.75,0,0,1-29.3,23.2C1472.36,570.71,1484.84,575.84,1495.49,581.08Z" fill="#55875c"/></g><g opacity="0.5"><path d="M1525.34,534.72c4.66-6.93,9.17-17.6,13.25-25.09-3.77-1.92-7.61-3.9-11.44-5.89-7.67,8.87-14.64,16.64-20.2,22.39C1513.33,529,1519.58,531.89,1525.34,534.72Z" fill="#55875c"/></g><path d="M1587.72,392.3S1456.06,499,1303,568.22s-138.66,64.45-138.66,64.45l.47-24.74S1450.45,500.8,1587.72,392.3Z" fill="#55875c"/><path d="M1398.78,470.16c-22,.58-62.68,2.39-75.6.61-16.65-2.3,1.71-12.9,16.86-17.24,9.43-2.69,51.37-9.92,81.11-10.17a180.15,180.15,0,0,0,8.25-25.53c-13.78-.34-64.63,1.05-77.92-.79-14.63-2-8.88-8.51,4.43-12.33,8.35-2.39,43.86-5.65,70-5.86.86-6.73.25-16.12.49-23-16.43-.13-34.87-.42-42.88-1.52-14.63-2-8.88-8.51,4.43-12.33a178,178,0,0,1,39.24-5.38c-.41-6.38-2.27-15.31-3.25-21.68-10.81,1.52-21.67,2.92-26.94,3-11.45.19-10.18-9.07-.44-13.56,3.28-1.5,12.9-3.61,24.19-5.75-2.6-11,3.06-35.35-1.41-45.83,0,0-16.29,15.29-27.52,19.13,1.27,7.09,2.07,12.74,2,15.31-.53,10.71-8.63,15.34-12.75,4.65-1.18-3.05-2.71-8.33-4.31-14.43-5.61,2.18-11.68,4.69-18,7.55,3.45,9.93,6,18,6.33,21.62,1.43,13.77-9.17,18.72-16.51,5.9-2.41-4.22-6-12.06-9.79-20.95-5.72,3-14.22,13.63-20,17.13,8.22,21.43,12.92,43.18,13.64,50.06,1.43,13.77-.41,17.75-7.75,4.94-4.75-8.29-16.21-35.6-23.06-52.3a189.72,189.72,0,0,0-17.13,14.33c9.63,24.43,17.92,68.53,18.83,77.35,1.44,13.77-.6,24-7.94,11.17-6-10.48-21.25-52.56-27.72-69.73A108.28,108.28,0,0,0,1254.2,388c-30.74,75,14.55,167.81,92.3,129.51C1367.37,507.24,1384.77,491,1398.78,470.16Z" fill="#80bf8b"/><path d="M1294.9,506.8c33,8.85,59.38-10,78.84-35.87-19.93.6-41.73,1.06-50.56-.16-16.65-2.3,1.71-12.9,16.86-17.24,6.38-1.82,27.59-5.71,49.86-8.11a271.64,271.64,0,0,0,12.83-27.5c-19.54.15-42.87.28-51.25-.88-14.63-2-8.88-8.51,4.43-12.33,6.69-1.91,30.78-4.39,53.56-5.4,1.94-6.2,4.17-14.38,6.51-23.61-13.23-.17-26.1-.53-32.43-1.4-14.63-2-8.88-8.51,4.43-12.33a172.76,172.76,0,0,1,32.63-5.07c1.37-5.76,2.74-11.66,4.09-17.57-.26-1.55-.51-3.05-.73-4.42-10.81,1.52-21.67,2.92-26.94,3-11.45.19-10.18-9.07-.44-13.56,3.28-1.5,12.9-3.61,24.19-5.75-2.6-11,3.06-35.35-1.41-45.83,0,0-16.29,15.29-27.52,19.13,1.27,7.09,2.07,12.74,2,15.31-.53,10.71-8.63,15.34-12.75,4.65-1.18-3.05-2.71-8.33-4.31-14.43-5.61,2.18-11.68,4.69-18,7.55,3.45,9.93,6,18,6.33,21.62,1.43,13.77-9.17,18.72-16.51,5.9-2.41-4.22-6-12.06-9.79-20.95-5.72,3-14.22,13.63-20,17.13,8.22,21.43,12.92,43.18,13.64,50.06,1.43,13.77-.41,17.75-7.75,4.94-4.75-8.29-16.21-35.6-23.06-52.3a189.72,189.72,0,0,0-17.13,14.33c9.63,24.43,17.92,68.53,18.83,77.35,1.44,13.77-.6,24-7.94,11.17-6-10.48-21.25-52.56-27.72-69.73A108.28,108.28,0,0,0,1254.2,388a129.09,129.09,0,0,0-6.74,21.73C1247.11,450.83,1258,496.91,1294.9,506.8Z" fill="#80bf8b"/><g opacity="0.5"><path d="M1427.22,356.59c-.32-5-1.54-11.58-2.52-17.26-1.35,5.91-2.72,11.81-4.09,17.57C1422.76,356.76,1425,356.65,1427.22,356.59Z" fill="#55875c"/></g><g opacity="0.5"><path d="M1346.5,517.51c20.87-10.27,38.27-26.5,52.28-47.35-7,.18-15.81.49-25,.77-19.46,25.84-45.79,44.72-78.84,35.87-36.86-9.89-47.79-56-47.44-97.07C1232.37,479.43,1276.13,552.17,1346.5,517.51Z" fill="#55875c"/></g><g opacity="0.5"><path d="M1421.15,443.36a180.15,180.15,0,0,0,8.25-25.53c-5.09-.13-15.23,0-26.67.09a271.64,271.64,0,0,1-12.83,27.5C1400.59,444.26,1411.51,443.44,1421.15,443.36Z" fill="#55875c"/></g><g opacity="0.5"><path d="M1425.94,398.85c.86-6.73.25-16.12.49-23L1416,375.7c-2.34,9.23-4.57,17.41-6.51,23.61C1415.14,399.06,1420.73,398.89,1425.94,398.85Z" fill="#55875c"/></g><path d="M1419.37,272.76s-56.72,125.37-142.62,231.35-77.17,97.26-77.17,97.26l-8.67-18.13S1359.24,401.5,1419.37,272.76Z" fill="#55875c"/><path d="M1179.47,803.83H551.75c-35.13,0-63.7-21.09-63.7-56.21s28.57-52.45,63.7-52.45h627.72v13.09H551.75c-27.91,0-50.6,11.48-50.6,39.36s22.69,43.12,50.6,43.12h627.72Z" fill="#d3ba53"/><path d="M1166.34,708.26H551.75c-27.91,0-50.6,11.48-50.6,39.36s22.69,43.12,50.6,43.12h614.07C1155.48,753.11,1162.4,727.46,1166.34,708.26Z" fill="#f4f4f4"/><g opacity="0.6"><path d="M517.53,743.47a50.31,50.31,0,0,1,8.64-28.25c-15,8.81-25,13.84-25,32.4,0,27.9,22.69,43.12,50.6,43.12h614.07a140.24,140.24,0,0,1-3.26-15.39H568.12C540.22,775.35,517.53,771.36,517.53,743.47Z" fill="#cccaca"/></g><rect x="581.25" y="1148.45" width="671.15" height="94.82" fill="#5ea5a5"/><rect x="581.25" y="1233.52" width="671.15" height="9.74" fill="#6acece"/><rect x="581.25" y="1148.45" width="671.15" height="9.75" fill="#6acece"/><polyline points="590.09 1233.53 1245.71 1233.53 1246.3 1158.19 590.09 1158.19" fill="#f4f4f4"/><g opacity="0.6"><polygon points="590.09 1233.53 1245.71 1233.53 1246 1196.4 590.09 1196.4 590.09 1233.53" fill="#cccaca"/><polygon points="590.09 1190.45 1245.71 1190.45 1246 1186.28 590.09 1186.28 590.09 1190.45" fill="#cccaca"/><polygon points="590.09 1179.84 1245.71 1179.84 1246 1176.42 590.09 1176.42 590.09 1179.84" fill="#cccaca"/><polygon points="590.09 1174.09 1245.71 1174.09 1246 1171.58 590.09 1171.58 590.09 1174.09" fill="#cccaca"/><polygon points="590.09 1167.41 1245.71 1167.41 1246 1164.73 590.09 1164.73 590.09 1167.41" fill="#cccaca"/></g><path d="M1192,1032.55H590a61.72,61.72,0,0,1,0-123.43h602v12.69H590a49,49,0,0,0,0,98.05h602Z" fill="#5ea5a5"/><path d="M1157.1,1139.05c0,5.09-4.87,9.21-10.87,9.21h-649c-6,0-10.87-4.12-10.87-9.21v-96.21c0-5.08,4.87-9.2,10.87-9.2h649c6,0,10.87,4.12,10.87,9.2Z" fill="#d3ba53" fill-rule="evenodd"/><path d="M1157.1,1105.12v33.93c0,5.09-4.87,9.21-10.87,9.21h-649c-6,0-10.87-4.12-10.87-9.21v-33.93" fill="#bca648" fill-rule="evenodd"/><path d="M643.56,1125.35a11.13,11.13,0,0,1-11.37,10.87H560.81a11.14,11.14,0,0,1-11.38-10.87v-68.81a11.14,11.14,0,0,1,11.38-10.87h71.38a11.13,11.13,0,0,1,11.37,10.87Z" fill="#f4f4f4" fill-rule="evenodd"/><path d="M677.39,1148.35c0,1.55-1.67,2.81-3.73,2.81h0c-2.06,0-3.74-1.26-3.74-2.81V1033c0-1.55,1.68-2.81,3.74-2.81h0c2.06,0,3.73,1.26,3.73,2.81Z" fill="#f4f4f4" fill-rule="evenodd"/><path d="M727.28,1148.35c0,1.55-1.67,2.81-3.74,2.81h0c-2.06,0-3.72-1.26-3.72-2.81V1033c0-1.55,1.66-2.81,3.72-2.81h0c2.07,0,3.74,1.26,3.74,2.81Z" fill="#f4f4f4" fill-rule="evenodd"/><path d="M701.83,1148.35c0,1.55-1.67,2.81-3.73,2.81h0c-2.07,0-3.74-1.26-3.74-2.81V1033c0-1.55,1.67-2.81,3.74-2.81h0c2.06,0,3.73,1.26,3.73,2.81Z" fill="#f4f4f4" fill-rule="evenodd"/><path d="M1179.29,921.81H590a49,49,0,0,0,0,98.05h588.78C1168.76,983.4,1175.46,940.42,1179.29,921.81Z" fill="#f4f4f4"/><g opacity="0.6"><path d="M556.86,955.92a48.67,48.67,0,0,1,8.37-27.36,49,49,0,0,0,24.78,91.3h588.78a138.05,138.05,0,0,1-3.17-14.91H605.88A49.08,49.08,0,0,1,556.86,955.92Z" fill="#cccaca"/></g><path d="M394.51,909.12H1009.2c34,0,61.7-20.43,61.7-54.46s-27.68-50.83-61.7-50.83H394.51v12.69H1009.2c27,0,49,11.11,49,38.14s-22,41.78-49,41.78H394.51Z" fill="#68504b"/><path d="M407.23,816.52h602c27,0,49,11.11,49,38.14s-22,41.78-49,41.78H407.73C417.76,860,411.06,835.13,407.23,816.52Z" fill="#f4f4f4"/><g opacity="0.6"><path d="M1042.34,850.63c0-10.12-1.29-21.7-6.57-29.52,14.48,8.54,22.45,15.56,22.45,33.55,0,27-22,41.78-49,41.78H407.73a136.19,136.19,0,0,0,3.17-14.91H993.32C1020.35,881.53,1042.34,877.66,1042.34,850.63Z" fill="#cccaca"/></g><rect x="308.35" y="522.86" width="14.52" height="552.07" transform="translate(872.27 1453.09) rotate(161.16)" fill="#777"/><rect x="364.29" y="1007.42" width="54.08" height="26.76" transform="translate(1091.34 1860.54) rotate(161.16)" fill="#a0a0a0"/><rect x="218.37" y="579.21" width="54.08" height="26.76" transform="translate(669.04 1074.19) rotate(161.16)" fill="#a0a0a0"/><rect x="306.45" y="1061.33" width="41.45" height="180.99" transform="translate(654.36 2303.65) rotate(180)" fill="#a0a0a0"/><rect x="285.3" y="1062.48" width="83.76" height="38.97" transform="translate(654.36 2163.93) rotate(180)" fill="#777"/><path d="M112,877.19C152.2,994.9,280.19,1057.76,397.91,1017.6A224.14,224.14,0,0,0,456,987.83c79-56.24,115.27-159.63,82.34-256.11C498.15,614,370.16,551.14,252.44,591.31A225.09,225.09,0,0,0,112,877.19Z" fill="#a9e8ed"/><path d="M106.07,831.45c-1.68-.3-2.3,2.31-2.78,3.32a6,6,0,0,1-1.05,1.76c-.38-2.62-.71-5.25-1-7.87a7.89,7.89,0,0,0,3.05-.84c6-2.65,11.16-3.49,16.85-7.16,4.06-2.62,8.16-7.84,12.83-9.16s3.1,5.76,7.72,6.06c3.15.21,8.44-6.09,9.31-8.59,1.35-3.86,7.27-5.08,9.85-8.09,3.24-3.79-4-9.52,0-12.1,1.89-1.22,4.39-.47,6.45-.84,3.37-.61,6.52-2,9.76-3,6.33-2.05,12.27-.12,18.55-1.32,3-.57,4.56-2.62,7.12-3.92,1.94-1,4.69,1.71,6.39,2.29,6.2,2.08,7.72,3,12.08,7.89,3.38,3.81,9.36,4.19,13.78,6.25a48.61,48.61,0,0,1,12.7,9.07c4.32,4.6,2.89,9.93,5.37,15.57,1.57,3.57,6.56,3.87,5.12,8.24-1.26,3.81,3,3.82-.58,8.29-6.93,8.69-2.47,23.6-15.93,27.76-3,.92-6.13.77-9.16,1.39-2.71.56-4.75,2.62-7.49,3.06-5.3.87-10.85-1.27-16,.63s-3.58,7.92-7.08,9c-4.8,1.51-10.61,4.79-7,10.89,1.71,2.91,5.24,4.36,5.12,8.2-.11,3.4-2.4,6.49-3.58,9.56-2.48,6.42-.69,13.28,0,19.69.8,7.9,8.25,10,11.17,17.19,2.67,6.62-1.36,15.48-1.15,22.62.12,3.77,1.8,7.27,2.2,11s-1.5,7-2.09,10.55c-.31,1.82-1.49,4-1.59,6A225.68,225.68,0,0,1,103.5,844.32C104.9,837.06,106,831.45,106.07,831.45Z" fill="#80bf8b"/><path d="M114.72,796.47c0,1.76-3,1.53-1.79,3.91a4.9,4.9,0,0,1-1.12,5.75c-.72.76-3.37,3.39-4.73,2.91-3.82-1.34-4.74,1.78-7,3.23q-.27-7.87,0-15.71C106.86,796,114.74,795.8,114.72,796.47Z" fill="#80bf8b"/><path d="M108.37,743.52c1.93-.25,5.77-3,6.44-.87s-.32,4.15,2.76,4.8c5.54,1.18,7.18-1.91,12.77-1.78,3.6.08,6.47-2.12,10.1-3.08,1.85-.49,3.39-3.9.15-3.36-8.9,1.5,1.17-4,2.45-3.55a8.22,8.22,0,0,1-2.15-2.17c.32-2.39,4.29.09,4.82.78,1.4,1.82-.42,3.89.64,5.62,1.2,2,9.61.65,12,1.41,8.69,2.79,16.26,6,25.05,3.12,4.95-1.65-1.91,4.53-2.21,4.9-2.18,2.72-.15,10.69,3.91,10.94,5.8.35,10.07-4.85,15.55-5.78,3.59-.62,8,10.4,9,13.38,2.19,6.93-12.68,10.69-17.75,9.74-5.38-1-6.47-6.93-11.87-7.91-2.45-.44-6.32-.27-6.86-2.7-.89-4-6.7.47-8.58.7-3.21.4-9-3.58-10.85.91-2,4.7-2.63,9-7.06,12.28a12,12,0,0,0-4.14,4.76c-.3.7.88,5.2.08,4.94-2.23-.73-1.66-2.81-2.94-4.1-.61-.61-3.06.71-3.83.61,2.67-5,7.52-8.1,10.07-13.41,2.25-4.69.26-10.45-2.94-3.82-2.38,5-11.53,8.53-11.49,14.35,0,2.47,1.36,5.25-.3,7.5-.45.6-5.38,3.79-5,4.4,1.27,2,6.42-2.26,2.48,4.07-2.52,4-4.73-2.58-4.41-4.67,1.52-9.67-11-.73-16-2,2.83-5.4-2.53-9.48-7.14-11.66A224,224,0,0,1,108.37,743.52Z" fill="#80bf8b"/><path d="M115.3,722.82q2.58-6.62,5.55-13.06c3.79,2.08,8,4.7,12,5.39,3.14.54,12.22-.08,14.19,2.44,2.76,3.54,1.39,10.23-3.64,10.78-5.85.63-6.87-.54-7.81,6.27-.67,4.88-5.2,6.84-9,2.83-2.26-2.4-9.07-4.06-6.25-7.28C125,724.94,119.35,723.58,115.3,722.82Z" fill="#80bf8b"/><path d="M407.54,671.25h0l.08,0Z" fill="#80bf8b"/><path d="M383.67,690.11Z" fill="#80bf8b"/><path d="M339.58,859.88c1.38-3.42,2.47-5,5.85-6.79,1.21-.63,10.79-2.9,10.94-3.51.79-3.16-1.3-3.73,2.5-6.57,3.53-2.65,7.81,1.87,11-1.78-5.86-.83-6.21-6.14-.43-4.38,3.54,1.09,11.77,2.32,4.07-1.15-4.71-2.12-7.8-6.58-5.05-12.18,3.79-7.72,10.27-6.58,15.43-12.29,4.07-4.5,4.18-10.07,9.41-14.23s13.23-5.06,16.57-11.13c1.21-2.2,2.56-2.16,4.84-1.53,4.07,1.13,1,.74,2.21,3.4,1.68,3.71,5.07.9,3.33-2.68,0,0-3.55-4.39-3.38-4.73.92-1.93,13.24,3.32,15,4.37,1.56.94,4.18,2.42,5.57.34,3.46-5.14,6.18-2.89,10.77-4.42,7.29-2.43,3.23-11.46,1-15.63-6.26-11.89,9.45-4.92,9.6-11.45.07-3.37-12-12.52-10.7-13.82,6.09-6.15,10.2,2.22,15.25,3.26,22.62,4.68,13.05-30-1.85-31.21-3.09-.26-6.58-1.3-9.66-1-3.71.31-6.47,5.84-9.82,5.37-3.77-.52-6-3.79-9.54.08-2.14,2.34-6.18,2.63-7.85,5.38-.36.59,2.13,17.73-2.93,13.35-2.33-2-1.9-6.94-2.32-9.65-.86-5.45-4.1-7.57-9.19-9S392.89,715,392,708.52c-.7-4.9-10.17-3.93-13.72-6.14-5.71-3.55-10.4,1.49-15.9-3.68-1.56-1.47-20.86-2.39-20.84.35,0,1.76,6.38-.18,6.87,2,.43,1.93-14.55,1-16.41-.12,2.6-2.29,5.93-.68,8.37-4.17,2-2.86-2.18-4.6-4.16-5.28,1.34-2.83,4.32-3.36,7.18-2.81.61.12,10.5.6,6.44-1.74-7.88-4.53-18.9.94-26.52,2.88a29.63,29.63,0,0,1-16.22-.87c-7.66-2.91,5.94-5.09,6.19-5.84.08-.27-2.55-3.79-2.17-5.93.55-3-2.54-6.85-2.05-10.44.36-2.58,16.47,4.54,12.55-2.93s8.33-14.48,14.39-9.63c1.88,1.51,8.68,2.83,7.94,5.92-1.1,4.56,6,4.95,9.06,5.29,3.25.37,17.85,12.22,16.12,3.24-.47-2.4-6.11-5.88-1.77-7.72s7.79-6.54,11.88-9.22c1.46-1,2.74-7.33,1.39-8.51-3.7-3.22-8.34-2.86-12.92-3.12-1.89-.08-3.78-.22-5.65-.43s-1-2.26-2.3-2.6-2.22,1-3.11,1.48c-2.74,1.3-6.15,1-9.06.77,1-2.84.67-5-2.38-2.44-2.25,1.88-7.88.85-10.91,1.89-6.55,2.25-17.12-4.65-6.72-5.37,3.67-.26,7,3.47,10.72,2.48,1.32-.35-2.46-4.2,1.25-5.64,3.31-1.28-2.76-4.13-.38-6,2.07-1.65,6.21-.26,8.41.4-5.39,5.86,10.24,4.77,13,2.4,2.95-2.5,7.34-2.55,10.53-5,2.31-1.81,5.79-2.87,8.65-1.87,3,1.06,3.71,1.85,5.53-1,1.59-2.49,5.15-1.89,7.52-3.11,3.59-1.86-.34-2.05,3.75-4.76s11.2-3.83,14.69-6.91c2.85-2.53,6.11-3.32,9.58-3.71a226,226,0,0,1,59.86,40.91,5.1,5.1,0,0,0,1.81,2c.22.15.42.27.62.39a224.07,224.07,0,0,1,28.69,34.46c-3.16,3.85.37,7.37.22,12s1,7.58-.81,11.69c-1.33,3,2.7,8.34-2.36,10.48-2-.48.55-17.64.67-18.82.29-2.9-1.92-8.81-5.63-5.35-2.27,2.13.49,8.93-.82,12.07s.67,6.27-.89,8.91c-1.68,2.83-5,8.15-3.8,11.65s4.37,4.46,1.5,8.4c-2.53,3.47-5.83,6.1-8.83,9.13-2.29,2.3-5.11,6.48-8.34,7.46-3.75,1.13-7.66-.65-9.9,3.75-2,4-3.58,7.81-7.8,10.12-5.11,2.79-3.34,2.68-5.71,7.51a6.35,6.35,0,0,0,.09,3.35c-.07,1.66-2.34,3.73-3,5.18a23.24,23.24,0,0,1-7.08,7.85c-2.5,1.47-3.85-2.14-7-1.22-4.25,1.24-1.85,4.57-2.13,7.86-.74,8.52,9,13,15,16.86,4.68,3,2.63,3.13,1.45,6.9-.46,1.49,5.32,4,5.26,6.77-.08,4-3,8-3.63,12-.77,4.68-1.19,8.74-2.57,13.27-1.23,4-1.2,8.57-4.43,11.68s-6.47,6.6-8.5,10.71c-1.8,3.65-1.76,7.21-.87,11.11.82,3.56,4.4,7.12,3.6,10.73-.85,3.85,3.39,9.56,4.1,13.48,1.09,6,1.05,12,3.71,17.59,3,6.39,4.11,13.78.83,19.84-1.45,2.7.48,5-.5,8.13-1.17,3.68,2.68,3.64,4.43,4.74-1.51-1-4.1,13.09-4.25,13.76-1.25,5.72-3.84,7.43-7.95,10.8-3-.48-4.35-.35-4.16-3.56.26-4.44-5.08-4.24-5.36-8.28-.18-2.65,2.48-3.34,3-5.6.84-3.74-2.67-3.86-4.29-6.12-1.46-2-4-2.84-1.77-5.06.76-.76,2.86-6.64-.44-5.5-1.62.56-2.85,3.9-4.94,2.21-1.53-1.25-.27-4.74-2.56-5-3.7-.49-8.32,3.29-11.81,0-2.61-2.43,2.68-10.78,1.66-11.34-1.85-1-6.11,2.79-7.63,3.52-4.48,2.17-7.09-1.8-10.25-4.28-3.94-3.1-11.32-8.57-12.12-13.62-1.55-9.79-14.32-4.07-19.86-6-7.46-2.61-13-12.42-14.75-19.64-2-8.43-11.36-9.89-16.87-15.7C326.07,866.73,337.13,866,339.58,859.88Zm42.78-170.73,0,0Zm.09.07.13.09Zm1.22.89-.05,0-.79-.57.78.57c-3-2.2-5.47-.6-7.41,2,1.39.43,11.28.85,7.42-2l.05,0Zm13,2.77c-.47.48-.52,1,1.26.18a1.34,1.34,0,0,0,0-.19c.22-4.45-7.25-3.49-8.84-.45,2.22,1,6.66.26,8.1,0A1.9,1.9,0,0,0,396.67,692.88Zm10-22.16.22.13Zm1,.58-.08,0h0l-.18-.11.18.11c-3.38-2-9.06-1.5-12.64-.4-5.92,1.82-2.72,5.13-4.27,8.93-1.28,3.13-7.48-.25-6.94,5.29.21,2,5.5,2.93,7.41,3.14,5.77.63,2.79-3.09,1.5-5.44-1.14-2.1,3.22-1.33,3.63-1.29,4.1.38,6,2.31,8.57,5.25,3.5,4,7.56.51,3.2-3.52a15.92,15.92,0,0,0-5.77-3.89c-1.59-.49-7.63.65-8.49-.36s16.9-5.84,13.8-7.71l.08,0,.26.16Z" fill="#80bf8b"/><path d="M407.54,671.25h0l-.18-.11Z" fill="#80bf8b"/><polygon points="383.62 690.07 383.62 690.07 383.62 690.07 383.62 690.07" fill="#80bf8b"/><path d="M396.67,692.88c.44-.46,1.25-.87,1.27,0a1.28,1.28,0,0,1,0,.19l-1.35.42C396.35,693.45,396.45,693.16,396.67,692.88Z" fill="#80bf8b"/><path d="M397.68,692.28l-.48.11A.64.64,0,0,1,397.68,692.28Z" fill="#80bf8b"/><polygon points="167.3 658.27 167.29 658.27 167.29 658.27 167.3 658.27" fill="#80bf8b"/><path d="M167.14,658.3h0l.15,0Z" fill="#80bf8b"/><path d="M167.52,658.23h0Z" fill="#80bf8b"/><path d="M167.3,658.27l.16,0Z" fill="#80bf8b"/><path d="M167.56,658.22h0Z" fill="#80bf8b"/><path d="M168.1,658.12h0l-.11,0,.11,0-.2,0-.36.07h-.05l-.19,0-.15,0-.21,0c5-.92,8.65-4.44,12.8-7,5.29-3.28,10.11-4.09,16.09-5.22a195.22,195.22,0,0,0,36.81-10.7c11.48-4.76,22.46-1.16,33.9-4.51,3-.87,11.36-1.22,4.79,2.68-4.62,2.74-10.43,2.83-14,7.29-2.93,3.66.49,7.3-1.68,10.11-3.29,4.28,1,7.88,5.16,8.61,12.4,2.18,8.6,24.22-1.93,21-5.18-1.57-8-6.94-13.7-7.84-5.37-.86-10.45,2.26-15.83,1.34-4.49-.77-9.18-3.45-13.55-.68-1.57,1-16.11,2.78-16.1,2.69.19-2.22,3.81-2.07,5.22-2.58,2.45-.87-1.37-2.78-1.5-4.25-.38.05-10.76,7.32-8.74,3.84.37-.64,5.43-6.07,4.93-6.34a7.43,7.43,0,0,0-4.5,1.08,19.11,19.11,0,0,1-9.54-1.59,20,20,0,0,0-5.43-2.42c.35-1.25.41-2.71-.67-3.63-4.17-3.57-11.15.84-15.84-.27A8.29,8.29,0,0,1,168.1,658.12Zm1.38-.25h0Zm-.27,0-.23,0Zm-.26,0h0Z" fill="#80bf8b"/><path d="M166.93,658.34l.21,0Z" fill="#80bf8b"/><polygon points="291.93 650.16 291.93 650.16 291.93 650.16 291.93 650.16" fill="#80bf8b"/><polygon points="291.93 650.17 291.93 650.16 291.93 650.17 291.93 650.17" fill="#80bf8b"/><path d="M291.4,650.79Z" fill="#80bf8b"/><polygon points="291.93 650.17 291.93 650.16 291.93 650.17 291.93 650.17" fill="#80bf8b"/><path d="M292,650.1l-.05.06h0Z" fill="#80bf8b"/><path d="M291.48,650.71l-.08.08,0,0,.05,0c2.19-2.63.13-7.16,1.83-8.32l3.33-1.76c2-1.34,1.74-4.58,3.46-5.54,3.61-2,5.81-2.52,9.07-5.64,3.52-3.37,10.29,1.29,11.8-.62.8-1-3.4-2.77-3.9-3.14,2.71-.78,10.64-1,12.47,1.64,2.67,3.81-18.12,7.7-19.6,8.76-1.75,1.24-10.4,16.22-3.58,13,4.4-2.09,4.35-1.24,8.71-.37,2.07.41,8.63-4.37,10-2.23,1.12,1.7-2.85,1.77-3.09,1.75-4.92-.47-4,1.74-6.57,4.52-.28.3-6.71,10.81-8.13,6.62-.26-.77,2.57-3.58,2.16-3.82-4.83-2.78-7.49,8-8.49-2.62-.45-4.78-5,1.1-6,2C291.34,658.34,288.83,653.88,291.48,650.71Zm.45-.54h0l.05-.06-.05.06h0l0,0Z" fill="#80bf8b"/><path d="M292,650.1l-.05.06h0Z" fill="#80bf8b"/><path d="M361.19,617.76Z" fill="#80bf8b"/><path d="M361.19,617.76h0c1.28-1.91-1.87-3.31-2.49-4.68-1.09-2.41,6.89.63,7.24.63-.22-4.89,9.42-4.6,13.42-8.08a8.12,8.12,0,0,0-3.67-.06c1.05-6.42,16.17-5.8,19.91-4.67,3.36,1,4.23,3.88-.26,3.6-3.41-.21-9.63-1.31-10.8,3.42.76.48,4.75-1,4.82.16-.79.45-7.56,3.7-7.88,3.47,2.64,2,5.59-1.86,8.11-1,1.41.48-4.44,5-4.62,5.11-4.6,2.93-8.6-.19-13,1.8C369.57,618.59,357.54,623.19,361.19,617.76Zm.29-.44.28-.41,0,0,0,0-.28.41-.28.42Z" fill="#80bf8b"/><path d="M361.48,617.32l.28-.41Z" fill="#80bf8b"/><path d="M250.58,625.9Z" fill="#80bf8b"/><path d="M250.58,625.9c12.42-2.78,25.77-9.32,38.59-9.51-.84.73-10.69,6.09-10.68,6.1,5,2.84,16.49-9.91,14.44-1a23.36,23.36,0,0,0,4.37-1c.49,4.21,7.31-.56,9.92-1.34.51,2.12-10.28,6-11.84,6.71-4.86,2.33-10.79-.61-15.79-.84-8-.37-23.32,7.37-30.5,1.32C248.93,626.47,252.49,625.48,250.58,625.9Zm0,0h0Zm2.44-.55Z" fill="#80bf8b"/><path d="M168.91,735.63l-.23.06C168.5,735.44,169.86,733.31,168.91,735.63Z" fill="#80bf8b"/><path d="M168.68,735.69s.09,0,.23-.06c1.4-3.43,5.38-11.92,2.38-13.61,1.61-1.29,2.17-4.79,4.67-2.42,1.15,1.09,2.86,4.84,1.22,6.19-5.61,4.62.2,5,4.13,8.32-1.06.59-3.42,1.15-3.45,2.77,0,1.24,5.1-.08,5.8.47a39.52,39.52,0,0,1-5.36,1.37c-2.9.45-5.68,1.45-8.6,1.81-.12-2.42-1.77-2.4-3.61-3.08C166.32,736.44,168.05,735.86,168.68,735.69Z" fill="#80bf8b"/><path d="M416.52,751.52l-.06.05.06-.05Z" fill="#80bf8b"/><polygon points="416.52 751.52 416.52 751.52 416.52 751.52 416.52 751.52" fill="#80bf8b"/><path d="M416.65,751.42l-.13.1h0Z" fill="#80bf8b"/><path d="M416.52,751.52l.13-.1-.13.1c6.07-4.62,14.48-17.22,23.33-10.91-5.48,2.14-10.05.12-14,6.08-3.67,5.55-5.44,7.61-12.86,8.47C413.48,754.39,418.1,750.32,416.52,751.52Zm2.32-1.76-.21.16Zm-1.12.85-.6.46Z" fill="#80bf8b"/><path d="M416.46,751.57Z" fill="#80bf8b"/><path d="M192.15,689h0Z" fill="#80bf8b"/><path d="M191.85,689l.3,0h0l-.3,0c3-.19,6.1-.86,9.11-1.33,2.63-.42,5.92,1.38,1.9,2-2.73.42-1.19,3.85-4.8,3.86-4.1,0-8.12.2-12.09-1A6.77,6.77,0,0,1,191.85,689Z" fill="#80bf8b"/><path d="M191.85,689l-1.1.07,1.1-.07Z" fill="#80bf8b"/><path d="M190.75,689.05Z" fill="#80bf8b"/><path d="M310.17,698.67l.07,0-.07,0c4.73-2.42.23-3.21.79-5.58.39-1.67,11.9,4.51,13,4.9-4.15,1.44-7.88,3.42-12.21,4.4C307.93,703.25,306.39,700.61,310.17,698.67Zm.18-.09,0,0Z" fill="#80bf8b"/><path d="M310.17,698.67l-.09.05h0l-.11.06-.07,0,.27-.14Z" fill="#80bf8b"/><path d="M309.73,698.9h0Z" fill="#80bf8b"/><path d="M309.67,698.93h0Z" fill="#80bf8b"/><path d="M309.68,698.92h0l0,0Z" fill="#80bf8b"/><path d="M309.66,698.93h0l0,0,.05,0Z" fill="#80bf8b"/><path d="M309.61,699Z" fill="#80bf8b"/><path d="M309.84,698.84l.12-.06-.12.06,0,0-.07,0,.16-.08Z" fill="#80bf8b"/><path d="M309.83,698.85l-.1,0h0l.1,0Z" fill="#80bf8b"/><path d="M310,698.78h0l.12-.06Z" fill="#80bf8b"/><path d="M309.67,698.93h0Z" fill="#80bf8b"/><path d="M184.44,728.58c1.53-.76,8-1.92,9.23-.24.64.92,4,7.81.86,7.06-3.31-.78-6.23,1.73-7.86-2C185.55,730.77,182.62,729.47,184.44,728.58Z" fill="#80bf8b"/><path d="M184.44,728.58l-.08,0c.1-.06.22-.11.3-.15Z" fill="#80bf8b"/><path d="M184.66,728.47Z" fill="#80bf8b"/><path d="M184.36,728.62l-.18.08Z" fill="#80bf8b"/><path d="M184.18,728.7Z" fill="#80bf8b"/><path d="M301.16,625.64l.11-.07Z" fill="#80bf8b"/><path d="M300.65,625.94l.51-.3Z" fill="#80bf8b"/><path d="M300.53,626l-.16.1.06,0-.11.07-.34.2.08,0a.57.57,0,0,0-.13.08l-.15.08,0,0-.17.1,0,0A1.78,1.78,0,0,1,300.53,626Z" fill="#80bf8b"/><path d="M301.27,625.57Z" fill="#80bf8b"/><path d="M300.59,626l.06,0Z" fill="#80bf8b"/><path d="M299.52,626.63c4.12-2.49,9.22-2.35,13.27-5,1.54-1,6.89-6.13,8.55-1.94.52,1.3-20.57,11.08-22.16,7.76A1.82,1.82,0,0,1,299.52,626.63Z" fill="#80bf8b"/><path d="M299.52,626.63h0l0,0h0Z" fill="#80bf8b"/><path d="M299.49,626.65Z" fill="#80bf8b"/><path d="M299.55,626.61l0,0h0Z" fill="#80bf8b"/><path d="M299.57,626.6h0Z" fill="#80bf8b"/><path d="M299.78,626.47l0,0a1.25,1.25,0,0,0,.12-.08Z" fill="#80bf8b"/><path d="M299.73,626.51h0l-.17.1Z" fill="#80bf8b"/><path d="M299.93,626.39l-.07,0,.12-.07Z" fill="#80bf8b"/><path d="M300.53,626l.06,0-.16.1.1-.06Z" fill="#80bf8b"/><path d="M437.81,984v0Z" fill="#80bf8b"/><path d="M437.87,983.88h0l0,0Z" fill="#80bf8b"/><path d="M438.09,983.62h0Z" fill="#80bf8b"/><path d="M437.82,983.94v0h0l-.2.23.21-.25v0l.05-.06h0l0,0,0,0,.21-.25.09-.11c1.72-2.08,7.39-3.25,5.12,1-2,3.61-7.85,5.12-11.54,5.37,1.82-2.44,4.49-4,6.42-6.32Zm-.28.34,0,0Z" fill="#80bf8b"/><path d="M438.08,983.63h0Z" fill="#80bf8b"/><path d="M438.17,983.52l-.08.1Z" fill="#80bf8b"/><path d="M438.32,983.34Z" fill="#80bf8b"/><path d="M438.17,983.52h0l.07-.09Z" fill="#80bf8b"/><path d="M438.24,983.43l.08-.09Z" fill="#80bf8b"/><path d="M437.82,983.94l.05-.06Z" fill="#80bf8b"/><path d="M402.37,761.45l.16-.14Z" fill="#80bf8b"/><path d="M402.58,761.27c2-1.65,6-2.36,8.5-2.8.4,1.54,1.38,2.89-.23,4.14-2.1,1.62-7.91,3.43-10.36,1.85A8.59,8.59,0,0,1,402.58,761.27Z" fill="#80bf8b"/><path d="M402.81,761.09l0,0Z" fill="#80bf8b"/><path d="M402.85,761.05l.12-.1Z" fill="#80bf8b"/><path d="M402.37,761.45Z" fill="#80bf8b"/><path d="M402.81,761.09l-.28.22.05,0Z" fill="#80bf8b"/><path d="M403,761Z" fill="#80bf8b"/><path d="M346.28,616.89l0,0Z" fill="#80bf8b"/><path d="M346.68,617.26l-.4-.37.4.37Z" fill="#80bf8b"/><path d="M346.25,616.86Z" fill="#80bf8b"/><path d="M347,617.57Z" fill="#80bf8b"/><path d="M347,617.57Z" fill="#80bf8b"/><path d="M346.68,617.26l.34.31c.1.1.09.08,0,0l-.34-.31c1.5,1.39,2.88-2.06,4.69-1.23.18,7.11-9.79,3.69-12.09.8C341.46,616.68,344.81,615.53,346.68,617.26Z" fill="#80bf8b"/><path d="M337.08,642l.16-.18Z" fill="#80bf8b"/><path d="M337.08,642c-.15.17-.34.39-.52.58Z" fill="#80bf8b"/><path d="M336.56,642.6l-.27.3Z" fill="#80bf8b"/><path d="M336.18,643c-.05.06,0,0,0,0Z" fill="#80bf8b"/><path d="M336.2,643l.09-.1Z" fill="#80bf8b"/><path d="M337.24,641.84Z" fill="#80bf8b"/><path d="M336.18,643c2.77-3.07,6.45-2.9,10-1.51C345.49,643.73,332.64,647,336.18,643Z" fill="#80bf8b"/><path d="M304,612.28c1.58-.06,5.66-.72,6.81.68,1.86,2.26-9.39,3-11,2A5.5,5.5,0,0,1,304,612.28Z" fill="#80bf8b"/><path d="M329.5,620.1Z" fill="#80bf8b"/><path d="M330.21,620c-.33,0-.59.08-.72.11C330.05,620,330.24,619.93,330.21,620Z" fill="#80bf8b"/><path d="M329.43,620.12Z" fill="#80bf8b"/><path d="M337.45,621c-.18,1.29-9.17,1.63-10.27.83.66-.75,2.92-1.7,3-1.87C332.3,619.74,337.66,619.53,337.45,621Z" fill="#80bf8b"/><path d="M329.49,620.1l-.06,0,.07,0Z" fill="#80bf8b"/><path d="M421.76,981.89s.13,0,.31,0c.43.46.55.65.52.71,1.27,2.51-5.92,2.45-7.08,2A19.72,19.72,0,0,1,421.76,981.89Z" fill="#80bf8b"/><path d="M157.75,777.62v-.25c.06-2.75,3.8-.51,3.52,2.2-.4,3.95-3.56-.24-3.52-2.2Z" fill="#80bf8b"/><path d="M157.75,777.3c0-.12,0-.24,0-.31S157.76,777.15,157.75,777.3Z" fill="#80bf8b"/><path d="M157.76,777Z" fill="#80bf8b"/><path d="M157.75,777.62Z" fill="#80bf8b"/><path d="M151.7,788.7c-.08.11-.16.22-.24.31C146,796.07,144.06,787.64,151.7,788.7Z" fill="#80bf8b"/><path d="M355.55,624.67a.56.56,0,0,1,.13-.28c0-.18.1-.25.41-.21a1.46,1.46,0,0,1,.67.15,2.88,2.88,0,0,1-.49.92c-1.36,1.81-4.06.86-5.95-.36A4.86,4.86,0,0,1,355.55,624.67Z" fill="#80bf8b"/><path d="M426.63,756.19l-.42.06h.07Z" fill="#80bf8b"/><path d="M426.16,756.26Z" fill="#80bf8b"/><path d="M426.16,756.26h0l.12,0,.21,0,.19,0h-.05l.14,0,.22,0-.22,0c2.28-.34-.35,4.14-3.18,2.38A3.42,3.42,0,0,1,426.16,756.26Z" fill="#80bf8b"/><path d="M427,756.14l.35-.06Z" fill="#80bf8b"/><path d="M427.34,756.08h0Z" fill="#80bf8b"/><path d="M427.48,756.06Z" fill="#80bf8b"/><path d="M427.48,756.06l-.1,0Z" fill="#80bf8b"/><path d="M123.89,806.19c-2.59,2.3-3.09,2.49-5.23,2.29C119.77,807,121.38,806.42,123.89,806.19Z" fill="#80bf8b"/><path d="M389.81,794.5h0l0,0Z" fill="#80bf8b"/><path d="M389.79,794.51l-.05,0h0Z" fill="#80bf8b"/><path d="M389.87,794.46l0,0Z" fill="#80bf8b"/><path d="M389.81,794.51h0Z" fill="#80bf8b"/><path d="M389.87,794.46l.06,0Z" fill="#80bf8b"/><path d="M389.75,794.54l-.06,0,.1-.06Z" fill="#80bf8b"/><path d="M390,794.36Z" fill="#80bf8b"/><path d="M389.44,794.74l.15-.09Z" fill="#80bf8b"/><path d="M389.74,794.55l-.15.1c.87-.57,3.05.83,2.49,1.73a7.12,7.12,0,0,1-2.43,1,5.06,5.06,0,0,1-.06-2.78Z" fill="#80bf8b"/><path d="M389.27,794.85Z" fill="#80bf8b"/><path d="M389.44,794.74l0,0h0Z" fill="#80bf8b"/><path d="M389.42,794.76h0l-.15.1Z" fill="#80bf8b"/><path d="M389.59,794.65l-.17.1.27-.17Z" fill="#80bf8b"/><polygon points="389.42 794.75 389.42 794.75 389.42 794.75 389.42 794.75" fill="#80bf8b"/><path d="M389.93,794.42l.1-.06Z" fill="#80bf8b"/><path d="M416.49,759.53h0l-.24.06.61-.16Z" fill="#80bf8b"/><path d="M416.49,759.53h0Z" fill="#80bf8b"/><path d="M416.85,759.44l-.32.08.32-.08c1-.26.43-.12,0,0,.21-.06-1.3,3.89-3.94,1.89A13.15,13.15,0,0,1,416.85,759.44Z" fill="#80bf8b"/><path d="M416.24,759.6Z" fill="#80bf8b"/><path d="M396.38,767h0C396.62,767,396.88,766.9,396.38,767Z" fill="#80bf8b"/><path d="M396.38,767.05c-.24.06-.46.12,0,0,1-.27-.31,3.57-2.84,1l3.31-1.21C396.2,767,395.86,767.19,396.38,767.05Z" fill="#80bf8b"/><path d="M396.85,766.78c2-.78,6.94-2.53,0,0Z" fill="#80bf8b"/><path d="M158.05,772a1.48,1.48,0,0,1-.78,1.9,2.56,2.56,0,0,1-.93-2A1.84,1.84,0,0,1,158.05,772Z" fill="#80bf8b"/><path d="M158,771.94c0,.06,0,.06,0,0a.09.09,0,0,1,0,0Z" fill="#80bf8b"/><path d="M158.21,772.16Z" fill="#80bf8b"/><polygon points="158.04 771.94 158.04 771.94 158.04 771.95 158.04 771.94" fill="#80bf8b"/><path d="M158,772l.17.21Z" fill="#80bf8b"/><path d="M158,771.94Z" fill="#80bf8b"/><path d="M175.63,774c.93-.65,2.16.73,1.05,1.31C176.36,775.17,174.65,774.65,175.63,774Z" fill="#80bf8b"/><path d="M101.35,815.35Z" fill="#80bf8b"/><path d="M101.18,814.94c.09.22.15.35.17.41Z" fill="#80bf8b"/><path d="M101.17,814.91l0,0,0,.07Z" fill="#80bf8b"/><path d="M101.15,814.87s0,0,0,0Z" fill="#80bf8b"/><path d="M411.41,780.18c1.52.76-1.26,1.52,0,0Z" fill="#80bf8b"/><path d="M408.15,782.13c0,.56-.26.65-.67.25C407.55,781.86,407.77,781.77,408.15,782.13Z" fill="#80bf8b"/><path d="M411.58,1057.87,406.17,1042c-130.48,44.53-272.86-25.41-317.38-155.89S114.2,613.24,244.68,568.72l-5.42-15.88C100,600.35,25.4,752.28,72.91,891.52S272.35,1105.38,411.58,1057.87Z" fill="#a0a0a0"/><rect x="208.64" y="526.73" width="36.75" height="23.17" transform="translate(615.7 974.47) rotate(161.16)" fill="#a0a0a0"/><rect x="187.4" y="1187.73" width="279.55" height="55.24" rx="27.62" transform="translate(654.36 2430.69) rotate(-180)" fill="#777"/><polyline points="151.16 978.95 164 1017.76 138.22 1024.85 122.59 976.18" fill="#919191"/><path d="M529.44,624.83a14.43,14.43,0,0,1-18.15-9.34C473.11,498.54,323.75,450,208.08,487.79S-.37,645.89,37.81,762.83a14.35,14.35,0,1,1-27.28,8.91C-32.62,639.58,68.35,502.87,199.07,460.2s296.36,14.22,339.51,146.38A14.44,14.44,0,0,1,529.44,624.83Z" fill="#a0a0a0"/><path d="M123.92,581.53A18.6,18.6,0,0,1,109,580c-9.07-5.1-15.88-26.55-10.88-35.66a170.52,170.52,0,0,1,212.28-77c9.66,3.8,18,24.7,14.29,34.42a18.57,18.57,0,0,1-24.2,10.72,133.42,133.42,0,0,0-166,60.23A18.56,18.56,0,0,1,123.92,581.53Z" fill="#47a6a8"/><path d="M87.39,582.56a25,25,0,0,1-20.08-2,25.67,25.67,0,0,1-9.92-34.63A229.55,229.55,0,0,1,343.14,442.31a25.67,25.67,0,0,1,14.52,33,25,25,0,0,1-32.58,14.43,179.59,179.59,0,0,0-223.52,81.07A24.92,24.92,0,0,1,87.39,582.56Z" fill="#777"/><path d="M48.34,753.9a24.3,24.3,0,1,1-28.49-19.63A24.34,24.34,0,0,1,48.34,753.9Z" fill="#47a6a8"/><path d="M36.4,756.14a12.15,12.15,0,1,1-14.25-9.81A12.18,12.18,0,0,1,36.4,756.14Z" fill="#9ff8ff"/><path d="M108,984.11h0c-26.09,8.52-54.49-6.09-63.1-32.47L5.81,832c-8.61-26.38,5.69-54.93,31.79-63.45h0c26.09-8.52,54.48,6.1,63.09,32.48l39.06,119.63C148.36,947,134.06,975.6,108,984.11Z" fill="#a0a0a0"/><rect x="70.32" y="729.45" width="63.92" height="272.11" rx="31.96" transform="translate(-263.56 74.48) rotate(-18.08)" fill="#777"/><path d="M174.36,985.1h0a10.74,10.74,0,0,1-13.47-6.93L83.12,740a10.74,10.74,0,0,1,6.78-13.54h0a10.75,10.75,0,0,1,13.48,6.93l77.76,238.2A10.74,10.74,0,0,1,174.36,985.1Z" fill="#47a6a8"/><path d="M499.24,613.92a24.3,24.3,0,1,0,11.42-32.65A24.34,24.34,0,0,0,499.24,613.92Z" fill="#47a6a8"/><path d="M510.21,608.69a12.15,12.15,0,1,0,5.71-16.33A12.17,12.17,0,0,0,510.21,608.69Z" fill="#9ff8ff"/><rect x="501.85" y="613.82" width="99.81" height="226.76" rx="49.9" transform="translate(1301.94 1247.25) rotate(161.92)" fill="#a0a0a0"/><path d="M563.77,865.2h0a32.06,32.06,0,0,0,20.47-40.3L519.62,627a32,32,0,0,0-40.3-20.46h0C462.61,612,450,630.12,455.4,646.83l68.07,197.91A32,32,0,0,0,563.77,865.2Z" fill="#777"/><path d="M533.92,875h0a10.75,10.75,0,0,0,6.79-13.55L462.94,623.21a10.74,10.74,0,0,0-13.47-6.94h0c-5.57,1.82-12.08,7.92-10.24,13.55L520.45,868A10.74,10.74,0,0,0,533.92,875Z" fill="#47a6a8"/><path d="M1350.56,257.43v381l-332.39,22.45L702.76,638.41v-381a36.06,36.06,0,0,1,36.06-36.06H1314.5A36.06,36.06,0,0,1,1350.56,257.43Z" fill="#cccbcb"/><g opacity="0.6"><path d="M1314.5,221.37H1107.94l-180,417h422.63v-381A36.06,36.06,0,0,0,1314.5,221.37Z" fill="#adadad"/></g><path d="M1377.16,638.41v34.91c0,12.92-16.14,23.39-36.06,23.39H712.24c-19.92,0-36.06-10.47-36.06-23.39V638.41h701Z" fill="gray"/><path d="M1372.86,638.41V663c0,12.92-16.15,23.39-36.06,23.39H707.93c-13.72,0-25.65-5-31.75-12.3.63,12.56,16.52,22.62,36,22.62h628.87c19.91,0,36.06-10.47,36.06-23.39v-34.9h-4.28Z" fill="#616262"/><path d="M920.82,638.41h198c0,12.4-20.1,22.45-44.89,22.45H965.72C940.93,660.86,920.82,650.81,920.82,638.41Z" fill="#4d4c4c"/><g opacity="0.2"><path d="M921,642c-.09-1.17-.15-2.35-.15-3.54h-1.37C919.91,639.62,920.41,640.81,921,642Z"/></g><rect x="727.28" y="254.9" width="595.37" height="351.34" fill="#eaeaea"/><g opacity="0.5"><polygon points="943.33 606.25 1322.64 606.25 1322.64 254.9 1095.49 254.9 943.33 606.25" fill="#cccbcb"/></g><g opacity="0.5"><polygon points="1074.13 437.73 1038.81 458.13 1003.49 478.52 1003.49 437.73 1003.49 396.94 1038.81 417.34 1074.13 437.73" fill="#fff"/><path d="M1027.25,511.61a75.23,75.23,0,1,1,75.23-75.23A75.32,75.32,0,0,1,1027.25,511.61Zm0-145.38a70.15,70.15,0,1,0,70.15,70.15A70.23,70.23,0,0,0,1027.25,366.23Z" fill="#fff"/></g><path d="M707.92,766.57c-.2,1.54-14,4.73-18.54,3.3" fill="#eab5ac"/><path d="M733,573.65s62.84-14.49,78.49-8.35,2,26.64,2,26.64S765.65,623.33,680,643.25c-20.27,4.72-31.46-49.55-28.41-54.73S733,573.65,733,573.65Z" fill="#c8eded"/><path d="M751,531.6l13,38.22s-72.16,51.75-106.52,24.61Z" fill="#a5e5d4"/><path d="M724.15,439.87c-12.41,3.28,41.61,78.75,52.71,94.93-11.53,10.39-34,25.23-39.72,28.82-2.68,1.69-10.1,3.87-12.87,5.41a31,31,0,0,0-6.4,4.3c-.41.42-9.43,15.3-9.67,17.28-.31,2.45-1.33,8.83.46,9.93s3.89-9.66,3.89-9.66l1.86-4.14c-1.09,6.81-4.87,17.5-2.41,18.55s5.39-9.2,7.63-16.32c-1.38,6.85-1.56,17.41.41,17.58,1.77.15,1.88-12,6.51-18.91,1.71-2.56,5.74-2,7.78-3.06,1.5-.79,3.9-1.9,4.95-3.25l5.38-7c2.47-1.51,3.55-.18,6.26-1.42,3.15-1.43,8.06-4.13,12.15-5.85,23.56-9.91,38-17.1,38-17.1C807.1,540.38,766,428.81,724.15,439.87Z" fill="#eab5ac"/><path d="M759.89,704.36c.27,11.63.71,25.28.32,26.92-.19.8-2.7,4-2.91,4.81,4.58,17.9,17.93,26.79,30.07,32.69-3.87-8.77-9.92-18.47-10.51-20.57-1.11-4-1-11.64,5.64-41.42C773.29,707.26,768.17,708.66,759.89,704.36Z" fill="#eab5ac"/><path d="M759.73,732.22c-4.3,1.7-10,8.09-12.44,10.39-2.7,2.58-2.54,4.95-2.38,5.47.42,1.37,35.59,32.57,45,36.14a4.9,4.9,0,0,0,3-.21c4.45-2.61-8.13-30.8-15.33-35.6C773,745.31,767,744.24,759.73,732.22Z" fill="#184655"/><path d="M774.86,579.08c4.16-8.76,19.94-20.65,36.6-13.78,15.89,6.55,15.37,19.72,10.36,36.21S785,714.4,780.71,731.47A63.68,63.68,0,0,1,758.27,730s2.82-78.35,4-96.9C763.4,615.28,767.66,594.24,774.86,579.08Z" fill="#defbfc"/><path d="M749,439.38c1.39-.22,7.38-.32,7.38-.32,9.69,12,33.57,60.45,33.57,60.45L761.3,517l-5.62-7.66L735,442.09S748.61,439.43,749,439.38Z" fill="#a5e5d4"/><path d="M713.33,428.81c9,0,32.71,6.95,43,10.25A588.54,588.54,0,0,1,751,538.13c-1.64,11.45-.69,14.76-.69,14.76l-92.84,41.54s5.55-80.81,4.67-96.07c-.83-14.23-2-63.17-2-63.17s.64-.1,21-3.61A211.33,211.33,0,0,1,713.33,428.81Z" fill="#a5e5d4"/><path d="M735.73,349.66a73.37,73.37,0,0,1-8.45-3.39c-3.09-1.49-7.1-3.23-9.63-3.63-5.33-.82-17.88-1.77-22.93,3.71-6.3,6.84-16.23,2.94-11.85,38.53,4.79,38.91,25.08,36.06,25.62,35.38s20.09-25.92,20.09-25.92,6.83,15,6.83,14.4S770.3,361.3,735.73,349.66Z" fill="#13375b"/><path d="M721,415.55l-.25,5s3.56,35.76-7.67,39.65c-9.7,3.36-15.93-30.47-15.93-30.47l1.78-33.83Z" fill="#eab5ac"/><path d="M717.48,360.54a19.3,19.3,0,0,1,22.23,19.52,145.84,145.84,0,0,1-1.63,18.56c-2.58,16.71-14,31.42-21.52,30.11s-26.5-15.73-23.16-39.5C695.46,374.54,705,362.55,717.48,360.54Z" fill="#eab5ac"/><path d="M698.63,392.06c-.64,3.68-3.58,6.23-6.58,5.71s-4.9-3.92-4.27-7.6,3.58-6.23,6.58-5.71S699.26,388.39,698.63,392.06Z" fill="#eab5ac"/><path d="M694.36,384.46s9.11,2.27,12.49-3.59,15.48-18.51,30.85-13.27-13.53-12.75-14.76-12.75l-16-.1s-11.38,9.35-11.79,10.38-3.69,12.24-3.69,12.24Z" fill="#13375b"/><path d="M689.38,769.87c-2.84-.9-7.8-12.85-5-24.62,2.5-10.62-3.79-20.23-3.79-20.23l21.25-3.18s1.44,16.61,6.74,26c1.79,8.28-.43,17.22-.63,18.76" fill="#eab5ac"/><path d="M696.13,792.33c-8.5-1.57-12.38-16.44-13.51-21.17-1.63-6.85-1.53-20.59,1.31-23.35,1.14.91,1.26,2.73,6.8,4.36,5.75,1.7,14.45.48,17.82-4.36,2.24,4.3,1.94,13.12,1.4,18.17C709.77,767.57,705.05,794,696.13,792.33Z" fill="#184655"/><path d="M693,622.06c2.57,19.47,14.26,112.66,14.26,112.66-9.16,3.1-16.15,4.48-25.22,3.34,0,0-39.63-122.45-37.77-141.79s15.47-21,15.47-21S686.23,570.53,693,622.06Z" fill="#defbfc"/><path d="M665.86,441.23c9.26,1-22.71,73-36.39,102.3,13.08,8.36,37.72,19.3,43.92,21.9,2.91,1.22,10.6,2.16,13.57,3.22a31,31,0,0,1,7,3.19c.47.35,11.81,13.54,12.38,15.45.7,2.37,2.76,8.5,1.18,9.88s-5.43-8.89-5.43-8.89l-2.52-3.78c2.2,6.53,7.68,16.46,5.43,17.9s-6.83-8.19-10.21-14.84c2.48,6.53,4.4,16.92,2.49,17.4-1.72.44-3.83-11.53-9.53-17.58-2.11-2.24-6-1-8.18-1.74-1.61-.53-4.16-1.23-5.42-2.39l-6.45-6c-2.69-1.08-3.53.4-6.41-.37-3.34-.9-8.63-2.75-13-3.78-24.87-5.9-33.52-7.16-40.29-10.62C587.59,552,644,438.73,665.86,441.23Z" fill="#eab5ac"/><path d="M617.54,499.38c13.63-30.24,42.58-64.19,42.58-64.19,7.78.89,21.31,21.43-11.63,80.77C639.29,512.18,626,506.14,617.54,499.38Z" fill="#a5e5d4"/><polygon points="1438.63 716.45 1287.58 716.45 1288.23 701.07 1439.28 701.07 1438.63 716.45" fill="#e5ccb7"/><polygon points="1438.63 1256.9 1287.58 1256.9 1288.23 1241.52 1439.28 1241.52 1438.63 1256.9" fill="#e5ccb7"/><polygon points="1438.63 1179.69 1287.58 1179.69 1288.23 1164.31 1439.28 1164.31 1438.63 1179.69" fill="#e5ccb7"/><polygon points="1438.63 1102.48 1287.58 1102.48 1288.23 1087.1 1439.28 1087.1 1438.63 1102.48" fill="#e5ccb7"/><polygon points="1438.63 1025.28 1287.58 1025.28 1288.23 1009.89 1439.28 1009.89 1438.63 1025.28" fill="#e5ccb7"/><polygon points="1438.63 948.07 1287.58 948.07 1288.23 932.69 1439.28 932.69 1438.63 948.07" fill="#e5ccb7"/><polygon points="1438.63 870.86 1287.58 870.86 1288.23 855.48 1439.28 855.48 1438.63 870.86" fill="#e5ccb7"/><polygon points="1438.63 793.66 1287.58 793.66 1288.23 778.27 1439.28 778.27 1438.63 793.66" fill="#e5ccb7"/><path d="M1286.85,1293.37h0a13.08,13.08,0,0,1-13.08-13.07V636.91a13.08,13.08,0,0,1,13.08-13.08h0a13.08,13.08,0,0,1,13.07,13.08V1280.3A13.07,13.07,0,0,1,1286.85,1293.37Z" fill="#a07f64"/><path d="M1435.44,1293.37h0a13.07,13.07,0,0,1-13.08-13.07V636.91a13.08,13.08,0,0,1,13.08-13.08h0a13.08,13.08,0,0,1,13.07,13.08V1280.3A13.07,13.07,0,0,1,1435.44,1293.37Z" fill="#a07f64"/><path d="M1396.51,700.7l-3-13.45s-9.67,6.14-15.32,14.91-8.33,32.16-9.94,33-11.53-12.91-14.65-17.25c-3.86-5.37-5.3-11.52-7.72-16.2s-10.94-6.27-14.16-5.69,4.43,14.27,4.43,14.27,11.4,19.9,17.85,38.32,26.61,27.19,29.84,24.56S1396.51,700.7,1396.51,700.7Z" fill="#d6a19a"/><path d="M1381.07,654.48c-2.42-11-4.8-22.14,1.6-34.27,5.18-9.81,14.14-18,24.5-16.69,61.26,7.49,16,70.78,57.07,76.71,12.75,1.84,30.75,6.59,41.4,12.94,19.23,11.45,36,44.64,23.24,74.57-31.22,73.29-108.12,15-123.6-30.7C1401.16,724.88,1382.64,661.59,1381.07,654.48Z" fill="#13375b"/><path d="M1413.39,1117s-1.7,21.43-.32,28.39c.74,3.73,4.84,11.4,3,14.91s-4,4.39-4,4.39l-48.76.78c-2.65,0-.9-1.66,1.24-3.23,3.51-2.58,6.34-4.28,17.54-9.68.72-.36,3.38-2,4.34-2.63a33.55,33.55,0,0,0,7-6.15c3.5-3.89,3.81-22.75,3.81-22.75Z" fill="#eab5ac"/><path d="M1375.28,832.27s-6.14,34.78-2.11,57.59,21.64,236.19,21.64,236.19h21.78s6-89.1,5.17-101.38-6.09-42.22-6.09-42.22l1-61.9-27.14-93.65Z" fill="#7eaa9f"/><path d="M1427.23,989.91s-52-157.64-52.67-196.13,3.45,23.28,3.45,23.28l60.47,7.89s16.93,25.44,21,46.49-3,85.74,4.8,113.32" fill="#a5e5d4"/><path d="M1424.77,680.23s7,1.67,16.44,10.79c20.18,19.59-2.44,90.36-4.06,102.64s15.48,50.19,15.48,50.19S1386,873.11,1371,863.17c0,0,2.69-119.2,4.31-128s15-44.45,18.27-48S1424.77,680.23,1424.77,680.23Z" fill="#fff"/><path d="M1356.8,790c10.64,3.78,90.13-43.43,88.32-79.42-.23-4.55-6-10.24-10.49-9.61-6.18.87-11.28.77-17.14,7.5-9.8,11.25-43.85,49.78-51,49.61" fill="#eab5ac"/><path d="M1366.44,758.11c-5.44,4.73-72.37-6.34-72.37-6.34s-1.19-8.12-5.59-11.46-11.17,4.93-14.68-5.83c-.64-2-5,4.73-5,4.73s-.5,12.23,7.63,16.95,11.5,6.61,11.5,6.61,67.56,31.26,78.74,26.56" fill="#eab5ac"/><path d="M1417.31,650.33s.11.66.32,1.78c1,5.38,4.85,23.23,7.45,28.13,3.15,5.93-12.88,28.42-25.78,24.17-4.4-1.44,5-19,4.66-20.78-.68-3.38-1.6-8-2.53-12.73-.53-2.67-1.07-5.38-1.57-7.92l-2.6-13.15Z" fill="#eab5ac"/><path d="M1409,612.6a26.86,26.86,0,0,1,16,9.95c6.71,8.67,14,35.47-2.73,50s-33.16-1.92-35.6-19.41S1384.7,612,1409,612.6Z" fill="#eab5ac"/><path d="M1383.34,642.31c1.76,3.4,4.71,5.29,6.59,4.21s2-4.72.22-8.13-4.7-5.29-6.58-4.21S1381.59,638.9,1383.34,642.31Z" fill="#eab5ac"/><path d="M1391.41,611.18s3.77,22.78,35.53,23.76c9.08.28,10.21,13,10.21,13s-3.22-27.53-12.17-32.84S1391.41,611.18,1391.41,611.18Z" fill="#13375b"/><path d="M1427,641.77c-.74,4,.74,7.66,3.3,8.18s5.22-2.29,6-6.28-.75-7.66-3.3-8.18S1427.71,637.78,1427,641.77Z" fill="#eab5ac"/><path d="M1386.36,1150c12.9,3.3,22.43,1.06,27.76-1.09,1.38,3.89,3.2,8.77,2.23,11.58-1.18,3.45-2.87,4.23-4.36,4.27-11.77.3-43.14.72-52.13.84a1.47,1.47,0,0,1-1.14-2.41C1361,1160.51,1385.4,1150.55,1386.36,1150Z" fill="#7eaa9f"/><path d="M1331.76,696.06a7.5,7.5,0,0,0-6.88,5.34H1335Z" fill="#d6a19a"/><path d="M1519.06,1053.52s12.46,17.5,18,22c3,2.38,11,5.63,11.84,9.52s-.27,6-.27,6l-36.86,31.93c-2,1.74-1.76-.69-1.13-3.27,1-4.22,2.11-7.35,7.22-18.68.33-.74,1.29-3.74,1.64-4.81a33.31,33.31,0,0,0,1.4-9.19c.18-5.23-11.7-19.89-11.7-19.89Z" fill="#eab5ac"/><path d="M1519.5,1096.12c15.6,2.88,25.28-11.63,20.57-18.68,3.55,2.1,8.09,4.67,9.15,7.45,1.31,3.4.52,5.08-.6,6.06-8.83,7.81-32.59,28.29-39.4,34.15a1.47,1.47,0,0,1-2.42-1.12C1506.8,1120.52,1519.14,1097.18,1519.5,1096.12Z" fill="#7eaa9f"/><path d="M1461.52,970.92c9.41,12.34,32.7,27.91,42.06,45s29.76,51.89,29.76,51.89l-18.41,11.87-87.7-89.72" fill="#a5e5d4"/><path d="M1511.93,1118.61l1.28-1.57-5.5,8.3s4.68,3.12,14.15-1.87,28.67-31.37,28-35-21.53,14-21.53,14" fill="#7eaa9f"/></g><g id="ICONS"><g clip-path="url(#clip-path)"><image width="2880" height="10002" transform="translate(345.47 -1628.45) scale(0.59)" xlink:href="../TEMPLATES/screencapture-localhost-3000-2021-04-28-15_57_21.png"/></g></g></svg>