<?xml version="1.0" encoding="UTF-8"?>
<svg width="126px" height="135px" viewBox="0 0 126 135" version="1.1" xmlns="http://www.w3.org/2000/svg" xmlns:xlink="http://www.w3.org/1999/xlink">
    <!-- Generator: Sketch 61.2 (89653) - https://sketch.com -->
    <title>SVG File</title>
    <desc>Created with Sketch.</desc>
    <g id="Page-1" stroke="none" stroke-width="1" fill="none" fill-rule="evenodd">
        <g id="SVG-File" fill-rule="nonzero">
            <g id="Group">
                <g id="Path">
                    <g>
                        <polygon fill="#FFFFFF" points="96 0.9 54.2 36.7 0.6 48.5 0.6 48.5 0.6 48.5 42.4 12.8 65.1 7.8"></polygon>
                        <path d="M65.1,7.8 C40,35.5 2.9,47.8 0.7,48.5 L0.7,48.5 C0.6,48.5 0.6,48.5 0.6,48.5 L0.6,48.5 L42.4,12.8 L65.1,7.8 Z" fill="#000000" opacity="0.11"></path>
                    </g>
                    <path d="M53.7,35.7 L21.4,44.8 L30.5,63 C38.4,45.3 56.1,33 76.7,33 C81.4,33 85.9,33.7 90.2,34.9 L80.5,15.4 L53.7,35.7 Z" fill="#FFFFFF"></path>
                    <path d="M92.8,79.5 L71.4,67.1 C68.2,65.2 64.2,67.6 64.2,71.3 L64.2,96 C64.2,99.7 68.2,102 71.4,100.2 L92.8,87.8 C96,86 96,81.4 92.8,79.5 Z" fill="#FFFFFF"></path>
                    <g transform="translate(28.000000, 35.000000)" fill="#FFFFFF">
                        <path d="M62.2,97.7 L64.3,98.6 C71.2,101.7 79.3,98.7 82.4,91.9 L86.7,82.6 C89.8,75.7 86.8,67.6 80,64.5 L77.9,63.6 L62.2,97.7 Z"></path>
                        <path d="M79.8,96.2 L81,96.6 C85,97.9 89.3,95.7 90.6,91.7 L92.4,86.3 C93.7,82.3 91.5,78 87.5,76.7 L86.3,76.3 L79.8,96.2 Z"></path>
                        <path d="M14.7,63.7 C12.7,59.2 11.6,54.2 11.6,49 C11.5,28.5 28.2,11.8 48.7,11.8 C69.2,11.8 85.8,28.4 85.8,48.9 C85.8,54.2 84.7,59.2 82.7,63.7 C86.6,66.2 89.1,70.3 89.7,74.7 C94.5,67.2 97.3,58.2 97.3,48.6 C97.3,21.7 75.5,0 48.7,0 C21.9,0 0.1,21.8 0.1,48.6 C0.1,58.2 2.9,67.1 7.7,74.7 C8.3,70.3 10.8,66.2 14.7,63.7 Z"></path>
                        <path d="M35.2,97.7 L33.1,98.6 C26.2,101.7 18.1,98.7 15,91.9 L10.7,82.6 C7.6,75.7 10.6,67.6 17.4,64.5 L19.5,63.6 L35.2,97.7 Z"></path>
                        <path d="M17.7,96.2 L16.5,96.6 C12.5,97.9 8.2,95.7 6.9,91.7 L5.1,86.3 C3.8,82.3 6,78 10,76.7 L11.2,76.3 L17.7,96.2 Z"></path>
                    </g>
                </g>
            </g>
        </g>
    </g>
</svg>